<?xml version="1.0" encoding="UTF-8"?>
<svg version="1.1" xmlns="http://www.w3.org/2000/svg" width="851" height="293">
<path d="M0 0 C3.07257255 1.61892154 5.33214699 4.10614679 7.72724915 6.57090759 C8.28682816 7.13473145 8.84640717 7.6985553 9.42294312 8.27946472 C11.20993771 10.08322538 12.98624412 11.89710961 14.7624054 13.71153259 C15.95376651 14.91794964 17.1458167 16.12368664 18.33857727 17.32872009 C20.54137591 19.55597147 22.74001824 21.78715572 24.93403625 24.02305603 C27.54840363 26.6852838 30.18275668 29.32684679 32.8249054 31.96153259 C40.15823873 39.29486593 47.49157206 46.62819926 54.8249054 53.96153259 C53.55320155 56.74535302 52.24430257 58.79087838 50.07878113 60.94816589 C49.52069763 61.50899872 48.96261414 62.06983154 48.38761902 62.6476593 C47.77766083 63.25042694 47.16770264 63.85319458 46.53926086 64.47422791 C45.89523315 65.11854767 45.25120544 65.76286743 44.58766174 66.42671204 C42.46051233 68.55246957 40.32636928 70.67105767 38.1920929 72.78965759 C36.71477946 74.2632404 35.23790735 75.73726577 33.76145935 77.2117157 C29.8762017 81.0893408 25.98497511 84.960922 22.09248352 88.83128357 C18.12076862 92.78253198 14.1547164 96.73945521 10.18818665 100.69590759 C2.40596419 108.4566868 -5.38257459 116.21109408 -13.1750946 123.96153259 C-12.23918956 125.06705149 -11.30129603 126.17088713 -10.3625946 127.27403259 C-9.84052429 127.88891541 -9.31845398 128.50379822 -8.78056335 129.13731384 C-7.30336991 130.81577939 -5.7747033 132.40035294 -4.1750946 133.96153259 C3.22259607 130.65511554 8.78936567 124.19103408 13.93818665 118.10606384 C17.68229218 113.8503414 21.78960272 109.93844664 25.8249054 105.96153259 C27.49296618 104.29626121 29.15946018 102.62941981 30.8249054 100.96153259 C32.02273701 99.76353088 33.22066072 98.56562124 34.4186554 97.36778259 C35.05674133 96.72969666 35.69482727 96.09161072 36.35224915 95.43418884 C38.31188456 93.47455343 40.27151998 91.51491801 42.2311554 89.55528259 C42.85248352 88.93347107 43.47381165 88.31165955 44.1139679 87.67100525 C45.5244898 86.26169098 46.93969474 84.85706537 48.3561554 83.45372009 C50.33738416 81.45368219 52.27321726 79.42737896 54.1999054 77.37559509 C55.40800122 76.11234707 56.61633856 74.84932999 57.8249054 73.58653259 C58.42818665 72.93297791 59.0314679 72.27942322 59.6530304 71.60606384 C64.10766904 67.00616525 64.10766904 67.00616525 67.52412415 66.79356384 C70.2514361 68.17805667 71.71604495 69.65058734 73.6374054 72.02403259 C74.24197571 72.75750916 74.84654602 73.49098572 75.46943665 74.24668884 C75.91674133 74.81258728 76.36404602 75.37848572 76.8249054 75.96153259 C72.5756179 81.03587709 68.13385055 85.79162809 63.44258118 90.4573822 C62.72969437 91.17041504 62.01680756 91.88344788 61.28231812 92.61808777 C58.94731626 94.95239816 56.60880245 97.2831557 54.2702179 99.61387634 C52.64189655 101.24033078 51.01379721 102.8670075 49.38591003 104.49389648 C45.11711524 108.75888756 40.84532499 113.02086596 36.57289124 117.2822113 C32.20715636 121.63768581 27.84427869 125.99602032 23.4811554 130.35411072 C14.93185658 138.89271006 6.37938862 147.42812753 -2.1750946 155.96153259 C-5.15342046 154.54732242 -6.89392448 153.38468361 -8.9250946 150.77403259 C-13.62186487 145.06656493 -19.36751593 140.49870343 -25.1750946 135.96153259 C-27.8150946 138.60153259 -30.4550946 141.24153259 -33.1750946 143.96153259 C-31.52281404 147.26609373 -30.58963922 148.7942607 -28.1023407 151.26133728 C-27.48184845 151.88167847 -26.8613562 152.50201965 -26.22206116 153.14115906 C-25.55429657 153.79860107 -24.88653198 154.45604309 -24.1985321 155.13340759 C-23.17066086 156.157034 -23.17066086 156.157034 -22.12202454 157.20133972 C-19.93603615 159.37614857 -17.74319031 161.54389332 -15.5500946 163.71153259 C-14.06526205 165.18633249 -12.58088154 166.66158765 -11.0969696 168.13731384 C-7.4615655 171.75068708 -3.81999636 175.35774113 -0.1750946 178.96153259 C5.78608836 174.02155998 11.23976841 168.67623397 16.69599915 163.18809509 C17.6183284 162.26435089 18.54065765 161.34060669 19.49093628 160.38887024 C21.92124353 157.95477828 24.34853035 155.51769663 26.77516174 153.0799408 C29.26059904 150.58420149 31.74893471 148.09135551 34.23701477 145.59825134 C39.10245635 140.72214399 43.96470738 135.84286628 48.8249054 130.96153259 C52.00577058 132.47099771 54.12360445 134.04095084 56.5749054 136.58653259 C57.18849915 137.21817322 57.8020929 137.84981384 58.4342804 138.50059509 C58.89318665 138.98270447 59.3520929 139.46481384 59.8249054 139.96153259 C58.27896138 143.41631828 56.49092544 145.13917854 53.5202179 147.49278259 C50.98725905 149.68723542 48.92116456 152.23207894 46.75068665 154.77793884 C43.29904917 158.69166166 39.54255177 162.30300073 35.8249054 165.96153259 C33.02258667 168.75447902 30.23251927 171.55914185 27.4499054 174.37168884 C26.24161169 175.58917609 25.03327768 176.80662334 23.8249054 178.02403259 C23.22162415 178.63569275 22.6183429 179.24735291 21.9967804 179.87754822 C18.74783033 183.14415562 15.43457253 186.09104644 11.8249054 188.96153259 C10.58151676 190.2835846 9.37042353 191.63704878 8.1999054 193.02403259 C7.08158755 194.34223078 5.95695849 195.65511113 4.8249054 196.96153259 C4.34279602 197.55836853 3.86068665 198.15520447 3.3639679 198.77012634 C1.8249054 199.96153259 1.8249054 199.96153259 0.06117249 199.84716797 C-3.11338395 198.58993913 -5.14956086 196.38020057 -7.49443054 193.98277283 C-8.01195389 193.46568756 -8.52947723 192.94860229 -9.06268311 192.41584778 C-10.76882057 190.70762293 -12.46409053 188.98902364 -14.1594696 187.27012634 C-15.34137019 186.08262964 -16.52393557 184.89579424 -17.70713806 183.70959473 C-20.81761563 180.5876697 -23.91897853 177.45684016 -27.01853943 174.32408142 C-30.18376642 171.12815162 -33.35751628 167.9407107 -36.53056335 164.75254822 C-42.75378609 158.49716306 -48.96741438 152.23233934 -55.1750946 145.96153259 C-53.90339076 143.17771216 -52.59449178 141.13218681 -50.42897034 138.97489929 C-49.87088684 138.41406647 -49.31280334 137.85323364 -48.73780823 137.27540588 C-48.12785004 136.67263824 -47.51789185 136.06987061 -46.88945007 135.44883728 C-46.24542236 134.80451752 -45.60139465 134.16019775 -44.93785095 133.49635315 C-42.81070153 131.37059562 -40.67655849 129.25200751 -38.5422821 127.13340759 C-37.06496867 125.65982478 -35.58809656 124.18579941 -34.11164856 122.71134949 C-30.22639091 118.83372438 -26.33516432 114.96214318 -22.44267273 111.09178162 C-18.47095783 107.1405332 -14.50490561 103.18360998 -10.53837585 99.22715759 C-2.7561534 91.46637838 5.03238538 83.71197111 12.8249054 75.96153259 C12.03544297 74.83628498 11.24324733 73.71295463 10.4499054 72.59043884 C10.00904602 71.96467957 9.56818665 71.33892029 9.1139679 70.69419861 C7.52518733 68.55867292 6.25565872 67.10094821 3.8249054 65.96153259 C-0.0002361 67.10907504 -2.30543798 68.7279898 -5.0500946 71.58653259 C-5.74361023 72.30454041 -6.43712585 73.02254822 -7.1516571 73.76231384 C-8.96119493 75.7290509 -10.70005497 77.73343693 -12.4250946 79.77403259 C-15.89740452 83.8277155 -19.8080589 87.33735331 -23.77177429 90.89439392 C-26.59900841 93.45209366 -29.23013744 96.03717206 -31.6750946 98.96153259 C-35.03668689 102.98226062 -38.8822058 106.40409937 -42.77275085 109.89512634 C-46.22438411 113.01803262 -49.26384889 116.27226092 -52.24150085 119.83653259 C-56.53464433 124.55465391 -61.42189819 128.71565599 -66.1750946 132.96153259 C-69.39033766 131.55308542 -71.49693328 129.85808474 -73.9250946 127.33653259 C-74.84548523 126.38907166 -74.84548523 126.38907166 -75.7844696 125.42247009 C-76.24337585 124.94036072 -76.7022821 124.45825134 -77.1750946 123.96153259 C-75.18726479 121.61691281 -73.18743197 119.28505615 -71.1750946 116.96153259 C-70.15995789 115.78590759 -70.15995789 115.78590759 -69.12431335 114.58653259 C-64.61921454 109.4652835 -59.91200654 104.87398341 -54.7844696 100.38340759 C-51.35007272 97.19579372 -48.26429438 93.75023743 -45.14042664 90.26280212 C-42.0437611 86.83290249 -38.80627031 83.82530245 -35.2688446 80.86778259 C-32.55395604 78.39601837 -30.12432035 75.69100347 -27.6750946 72.96153259 C-24.6779622 69.62192901 -21.69065243 66.40277726 -18.2375946 63.52403259 C-13.88133309 59.88930507 -10.16135646 55.71176063 -6.38627625 51.49107361 C-3.82909754 48.65319286 -1.34682139 46.10622404 1.8249054 43.96153259 C5.29120374 45.44806766 7.51512576 47.4187561 10.1530304 50.09434509 C10.95224915 50.90000916 11.7514679 51.70567322 12.5749054 52.53575134 C13.3999054 53.37750916 14.2249054 54.21926697 15.0749054 55.08653259 C15.91537415 55.93602478 16.7558429 56.78551697 17.6217804 57.66075134 C19.69406222 59.75658183 21.76152932 61.85693973 23.8249054 63.96153259 C24.95689893 63.05351639 26.08022902 62.13469434 27.1999054 61.21153259 C27.82638977 60.70106384 28.45287415 60.19059509 29.0983429 59.66465759 C30.90802857 57.87953778 31.82607995 56.28203615 32.8249054 53.96153259 C30.57209409 50.86391704 28.16353154 48.30874481 25.2624054 45.83653259 C21.64448525 42.73838925 18.21074674 39.49605677 14.8249054 36.14903259 C14.33175842 35.66869568 13.83861145 35.18835876 13.33052063 34.69346619 C12.12185752 33.48843655 10.96816317 32.2287834 9.8249054 30.96153259 C9.8249054 30.30153259 9.8249054 29.64153259 9.8249054 28.96153259 C8.5049054 28.30153259 7.1849054 27.64153259 5.8249054 26.96153259 C3.5149054 24.98153259 1.2049054 23.00153259 -1.1750946 20.96153259 C-17.0150946 36.80153259 -32.8550946 52.64153259 -49.1750946 68.96153259 C-52.66863298 67.2147634 -54.31455224 66.04748044 -56.9250946 63.33653259 C-57.53868835 62.70489197 -58.1522821 62.07325134 -58.7844696 61.42247009 C-59.24337585 60.94036072 -59.7022821 60.45825134 -60.1750946 59.96153259 C-58.57252792 56.0075715 -55.83392864 53.31783055 -52.87089539 50.35093689 C-52.06079514 49.52835136 -52.06079514 49.52835136 -51.23432922 48.68914795 C-49.45178284 46.88255153 -47.66170902 45.08366419 -45.8704071 43.28575134 C-44.62723711 42.03361541 -43.38414533 40.7814018 -42.14112854 39.52911377 C-39.53718998 36.90869923 -36.92890162 34.29269851 -34.31816101 31.67906189 C-30.96804764 28.32354807 -27.6344105 24.95215565 -24.30447578 21.5766325 C-21.74445361 18.98693345 -19.17331622 16.40849567 -16.59891891 13.83309364 C-15.36440585 12.59436422 -14.13402989 11.35149779 -12.90785599 10.10451317 C-11.19614106 8.36606277 -9.46946936 6.64398375 -7.73808289 4.92515564 C-7.23196472 4.40420319 -6.72584656 3.88325073 -6.20439148 3.34651184 C-2.73802499 -0.04842305 -2.73802499 -0.04842305 0 0 Z " fill="#0796B0" transform="translate(138.1750946044922,40.03846740722656)"/>
<path d="M0 0 C9.9 0 19.8 0 30 0 C37.61645345 17.5626456 44.92282416 35.15219158 51.83203125 53.00097656 C53.52428428 57.34621825 55.25684033 61.67496767 57 66 C59.04658063 63.95341937 59.56084876 62.88492745 60.5234375 60.23046875 C60.81629639 59.43842041 61.10915527 58.64637207 61.41088867 57.83032227 C61.72904541 56.95819092 62.04720215 56.08605957 62.375 55.1875 C66.2230907 44.83976216 70.40940888 34.64958293 74.69873047 24.47924805 C75.1835791 23.32207275 75.66842773 22.16489746 76.16796875 20.97265625 C76.80641724 19.46070679 76.80641724 19.46070679 77.45776367 17.91821289 C79.78657089 12.00163428 81.86143879 5.98797139 84 0 C94.23 0 104.46 0 115 0 C115 33.33 115 66.66 115 101 C106.42 101 97.84 101 89 101 C88.67 83.51 88.34 66.02 88 48 C86.35 52.62 84.7 57.24 83 62 C81.75651704 65.30565074 80.50546916 68.605205 79.23046875 71.8984375 C78.74166985 73.16719223 78.74166985 73.16719223 78.24299622 74.46157837 C77.22610353 77.10000842 76.20685653 79.73752103 75.1875 82.375 C74.48747216 84.19004322 73.78760133 86.005147 73.08789062 87.8203125 C71.39401952 92.21435447 69.69694982 96.60714121 68 101 C61.07 101 54.14 101 47 101 C44.30507661 95.61015321 42.17165938 90.88968358 40.4375 85.25 C36.28723347 72.25378551 31.04311968 59.66930066 26 47 C25.67 64.82 25.34 82.64 25 101 C16.75 101 8.5 101 0 101 C0 67.67 0 34.34 0 0 Z " fill="#191919" transform="translate(283,72)"/>
<path d="M0 0 C8.58 0 17.16 0 26 0 C32.40188595 6.88898597 32.40188595 6.88898597 33.8046875 10.33984375 C36.22745193 15.73494906 39.52108484 20.39784149 42.875 25.25 C49.06153126 34.46985642 55.01961123 43.82721817 60.89355469 53.24853516 C61.9041853 54.84832863 62.95035341 56.42553011 64 58 C64.33 38.86 64.66 19.72 65 0 C73.58 0 82.16 0 91 0 C91 33.33 91 66.66 91 101 C82.42 101 73.84 101 65 101 C57.17497733 91.98725068 57.17497733 91.98725068 55.390625 87.95703125 C53.22247409 83.35547692 50.65450607 79.2894967 47.75 75.125 C46.93073463 73.90164947 46.11425313 72.67642931 45.30078125 71.44921875 C43.84296465 69.26219052 42.38163032 67.07766624 40.91796875 64.89453125 C35.84540623 57.32070516 30.93216838 49.67226193 26 42 C25.67 61.47 25.34 80.94 25 101 C16.75 101 8.5 101 0 101 C0 67.67 0 34.34 0 0 Z " fill="#191919" transform="translate(689,72)"/>
<path d="M0 0 C9.57 0 19.14 0 29 0 C33.50326409 10.13234421 33.50326409 10.13234421 34.859375 13.8828125 C35.16593018 14.727229 35.47248535 15.57164551 35.78833008 16.44165039 C36.26435669 17.76990845 36.26435669 17.76990845 36.75 19.125 C37.09506592 20.07947021 37.44013184 21.03394043 37.7956543 22.01733398 C40.19442495 28.67889162 42.51138383 35.36674004 44.8125 42.0625 C47.92350106 51.11254239 51.26699313 60.06377172 54.6875 69 C65 95.96064452 65 95.96064452 65 101 C56.42 101 47.84 101 39 101 C34 89 34 89 33 83 C20.79 83 8.58 83 -4 83 C-4.99 86.63 -5.98 90.26 -7 94 C-7.99 96.31 -8.98 98.62 -10 101 C-18.91 101 -27.82 101 -37 101 C-35.06955171 95.47189806 -33.13613878 89.94491897 -31.19824219 84.41943359 C-30.36442049 82.03994975 -29.53182981 79.66003431 -28.70019531 77.27978516 C-22.95745338 60.84403896 -17.1152887 44.44939346 -11.0625 28.125 C-10.79354919 27.39755585 -10.52459839 26.67011169 -10.24749756 25.92062378 C-9.47129169 23.82359243 -8.691402 21.72797083 -7.91015625 19.6328125 C-7.46808838 18.44574707 -7.02602051 17.25868164 -6.57055664 16.03564453 C-4.4755569 10.65241032 -2.22174016 5.33217639 0 0 Z M14 29 C12.42752789 33.50032696 10.86111648 38.00269981 9.30029297 42.50708008 C8.76842799 44.03923413 8.23490915 45.5708151 7.69970703 47.10180664 C6.93086565 49.30206236 6.16798853 51.50430801 5.40625 53.70703125 C5.16563843 54.39150833 4.92502686 55.07598541 4.67712402 55.78120422 C3.68774761 58.65837218 3 60.93309937 3 64 C10.59 64 18.18 64 26 64 C23.53057035 55.75915276 23.53057035 55.75915276 20.95703125 47.5546875 C20.60576172 46.45898438 20.25449219 45.36328125 19.89257812 44.234375 C19.35793945 42.57148437 19.35793945 42.57148437 18.8125 40.875 C18.44447266 39.72773437 18.07644531 38.58046875 17.69726562 37.3984375 C16.79901292 34.59868882 15.89990824 31.7992169 15 29 C14.67 29 14.34 29 14 29 Z " fill="#191919" transform="translate(603,72)"/>
<path d="M0 0 C23.43 0 46.86 0 71 0 C71 23.04136221 71 23.04136221 64.7109375 30.625 C62.28499248 33.63210548 60.00121433 36.71700207 57.73779297 39.84790039 C56.33391222 41.78298576 54.91159872 43.7031836 53.484375 45.62109375 C51.12033296 48.81430165 48.90554721 52.08315413 46.734375 55.41015625 C44.15851519 59.25654151 41.48334782 63.031674 38.8125 66.8125 C38.28857666 67.55483887 37.76465332 68.29717773 37.22485352 69.06201172 C34.85614221 72.4095262 32.46123702 75.71835065 30 79 C50.295 79.495 50.295 79.495 71 80 C71 86.93 71 93.86 71 101 C47.57 101 24.14 101 0 101 C0 77.79495268 0 77.79495268 8 69 C9.88907507 66.426223 11.66001882 63.77663189 13.4375 61.125 C14.38408904 59.73997712 15.33199643 58.3558543 16.28125 56.97265625 C16.74144531 56.29992676 17.20164062 55.62719727 17.67578125 54.93408203 C23.22395183 46.83072522 28.84414395 38.77845038 34.5 30.75 C35.02907959 29.9979126 35.55815918 29.2458252 36.10327148 28.47094727 C36.59512939 27.77412842 37.0869873 27.07730957 37.59375 26.359375 C38.03396484 25.73514648 38.47417969 25.11091797 38.92773438 24.46777344 C40 23 40 23 41 22 C20.705 21.505 20.705 21.505 0 21 C0 14.07 0 7.14 0 0 Z " fill="#191919" transform="translate(476,72)"/>
<path d="M0 0 C8.25 0 16.5 0 25 0 C25 33.33 25 66.66 25 101 C16.75 101 8.5 101 0 101 C0 67.67 0 34.34 0 0 Z " fill="#191919" transform="translate(425,72)"/>
<path d="M0 0 C0.99 0 1.98 0 3 0 C3 77.88 3 155.76 3 236 C2.01 236 1.02 236 0 236 C0 158.12 0 80.24 0 0 Z " fill="#212121" transform="translate(254,22)"/>
<path d="M0 0 C1.98122474 3.64545352 2.79011126 6.72109444 2.5625 10.875 C1.25492902 14.23732538 0.10300545 16.33449455 -2.4375 18.875 C-5.5625 19 -5.5625 19 -8.4375 18.875 C-8.4375 18.215 -8.4375 17.555 -8.4375 16.875 C-9.4275 17.535 -10.4175 18.195 -11.4375 18.875 C-17.59327889 19.53454774 -17.59327889 19.53454774 -20.4375 17.3125 C-21.90669958 13.73132603 -21.47633851 11.57586219 -20.4375 7.875 C-18.5625 4.9375 -18.5625 4.9375 -15.4375 2.875 C-11.66640237 2.46129309 -8.25193121 2.64521499 -4.4375 2.875 C-4.7675 6.835 -5.0975 10.795 -5.4375 14.875 C-2.1183941 12.16806729 -2.1183941 12.16806729 -2 8.4375 C-2.19110615 4.92216032 -2.19110615 4.92216032 -3.875 2.4375 C-7.63183753 0.14674541 -11.14144098 0.25196277 -15.4375 0.875 C-18.14040462 1.41551239 -18.14040462 1.41551239 -20.4375 2.875 C-21.77053939 5.53875786 -21.77053939 5.53875786 -22.375 8.6875 C-22.63152344 9.72519531 -22.88804687 10.76289063 -23.15234375 11.83203125 C-23.46898005 15.21093097 -23.05250883 16.91853432 -21.4375 19.875 C-17.2933283 22.43463546 -13.1520181 22.03481417 -8.4375 21.875 C-8.4375 22.865 -8.4375 23.855 -8.4375 24.875 C-13.16949521 26.45233174 -16.99361468 26.40257348 -21.6875 24.6875 C-24.87368806 22.58751242 -26.04661202 21.4294915 -27.4375 17.875 C-28.52115843 11.68610632 -27.20190297 7.05497833 -23.92578125 1.7578125 C-21.08705752 -1.83343379 -17.81667656 -2.73523271 -13.5625 -3.9375 C-8.24921906 -4.25629686 -4.07000714 -3.54821136 0 0 Z M-14.4375 6.875 C-16.0858633 8.62744247 -16.0858633 8.62744247 -17.4375 10.875 C-17.22032648 13.08300528 -17.22032648 13.08300528 -16.4375 14.875 C-14.60049211 15.64742269 -14.60049211 15.64742269 -12.4375 15.875 C-10.56390605 14.83540481 -10.56390605 14.83540481 -9.4375 12.875 C-9.18680087 10.24929296 -9.18680087 10.24929296 -9.4375 7.875 C-11.0875 7.545 -12.7375 7.215 -14.4375 6.875 Z " fill="#161616" transform="translate(488.4375,212.125)"/>
<path d="M0 0 C2.475 0.495 2.475 0.495 5 1 C6.32384902 3.55804686 7.28352748 5.80046562 8.1875 8.5 C9.54090155 13.57413899 9.54090155 13.57413899 13 17 C13.10183594 16.30519531 13.20367188 15.61039063 13.30859375 14.89453125 C14.11717006 11.50947448 15.46675713 8.77712981 17.0625 5.6875 C17.61035156 4.61886719 18.15820312 3.55023438 18.72265625 2.44921875 C19.14417969 1.64097656 19.56570313 0.83273438 20 0 C21.32 0 22.64 0 24 0 C24 7.92 24 15.84 24 24 C22.68 24 21.36 24 20 24 C19.67 20.37 19.34 16.74 19 13 C16.03 18.445 16.03 18.445 13 24 C9 23 9 23 7.734375 20.93359375 C6.82291667 18.62239583 5.91145833 16.31119792 5 14 C4.67 17.3 4.34 20.6 4 24 C2.68 24 1.36 24 0 24 C0 16.08 0 8.16 0 0 Z " fill="#161616" transform="translate(677,207)"/>
<path d="M0 0 C2.35422868 1.48824589 4.0026181 3.0026181 6 5 C6 5.66 6 6.32 6 7 C3.75 7.1875 3.75 7.1875 1 7 C0.1028125 6.2265625 0.1028125 6.2265625 -0.8125 5.4375 C-4.26797871 3.16675685 -7.02071765 4.2704649 -11 5 C-12.25095663 8.75286989 -12.58042964 12.07596863 -12 16 C-10.5 18.16666667 -10.5 18.16666667 -8 19 C-3.89718519 19.41865457 -2.48868651 19.32579101 1 17 C1.33 16.01 1.66 15.02 2 14 C-0.97 14 -3.94 14 -7 14 C-7 13.01 -7 12.02 -7 11 C-2.38 11 2.24 11 7 11 C6.74385063 15.35453922 6.42722153 17.49609768 3.5625 20.875 C-0.08003621 23.89563978 -2.20337438 24.28781341 -6.96875 24.21875 C-10.80078578 23.80606922 -13.10538107 21.99859402 -15.61328125 19.19921875 C-18.0266284 15.37185412 -17.50395284 11.37232322 -17 7 C-15.58019321 3.0746518 -14.38571195 2.22252613 -10.75 0.125 C-6.48560758 -1.15431773 -4.26488674 -1.24069433 0 0 Z " fill="#1B1B1B" transform="translate(411,207)"/>
<path d="M0 0 C3.38505109 2.80887218 5.70836442 4.97180708 6.34375 9.390625 C6.74679089 16.76627335 6.74679089 16.76627335 4.75390625 20.05859375 C1.60906395 23.0872294 -1.19775897 24.38087042 -5.5625 24.625 C-9.9332558 24.31173764 -12.67575073 22.91885301 -16 20 C-18.37965342 16.97135019 -18.35961865 13.75248888 -18.25390625 9.9609375 C-17.74916157 6.06275554 -15.88232313 3.77203274 -13 1.25 C-8.73867224 -1.41332985 -4.72327156 -1.3718664 0 0 Z M-13 7 C-14.04274263 9.7443611 -14.38106604 12.08426741 -14 15 C-12.16666667 18.16666667 -12.16666667 18.16666667 -9 20 C-5.04220351 20.62491523 -2.99136114 20.61006839 0.4375 18.5 C2.60578832 15.0307387 2.89996291 11.91794196 2 8 C-0.28388407 4.86781614 -1.68599724 3.29565062 -5.5 2.4375 C-9.01731873 3.22889671 -10.57996823 4.31107581 -13 7 Z " fill="#161616" transform="translate(631,207)"/>
<path d="M0 0 C5.26935227 1.05387045 5.82487918 1.49992258 8.63867188 5.70898438 C9.2197168 6.62647461 9.2197168 6.62647461 9.8125 7.5625 C10.21919922 8.17802734 10.62589844 8.79355469 11.04492188 9.42773438 C12.0433873 10.94305249 13.02353265 12.47041388 14 14 C14.33 9.38 14.66 4.76 15 0 C16.32 0.66 17.64 1.32 19 2 C19 9.26 19 16.52 19 24 C14 23 14 23 12.60620117 21.60131836 C12.25533447 21.02003174 11.90446777 20.43874512 11.54296875 19.83984375 C11.15302734 19.21142578 10.76308594 18.58300781 10.36132812 17.93554688 C9.7802832 16.94651367 9.7802832 16.94651367 9.1875 15.9375 C8.57745117 14.94266602 8.57745117 14.94266602 7.95507812 13.92773438 C6.95587422 12.2937421 5.97601184 10.64795027 5 9 C4.67 13.95 4.34 18.9 4 24 C2.68 24 1.36 24 0 24 C0 16.08 0 8.16 0 0 Z " fill="#161616" transform="translate(739,207)"/>
<path d="M0 0 C14.19642857 -0.66964286 14.19642857 -0.66964286 17.8125 2.3125 C20.8792021 6.08016258 21.35236165 9.10689078 21.28125 13.93359375 C20.8101856 17.3946086 19.26942471 19.42389628 17 22 C12 24 12 24 0 24 C0 16.08 0 8.16 0 0 Z M4 3 C4 8.61 4 14.22 4 20 C11.52469407 20.77068979 11.52469407 20.77068979 15 17.875 C17.18293783 15.15610238 17.18293783 15.15610238 17.5625 12 C16.87642343 8.34092496 15.57265686 6.64832324 13 4 C10.32917961 2.47825081 10.32917961 2.47825081 4 3 Z " fill="#141414" transform="translate(503,207)"/>
<path d="M0 0 C13.06618779 -0.61056952 13.06618779 -0.61056952 17.25 2.125 C19.88715768 6.45747333 21.02722603 9.4481164 20.9375 14.5625 C19.81064105 18.69431615 18.2988277 20.32952044 15 23 C12 24 12 24 0 24 C0 16.08 0 8.16 0 0 Z M4 3 C4 8.61 4 14.22 4 20 C11.34258876 20.68599434 11.34258876 20.68599434 14.5 18.5 C16.59344124 15.01093127 16.88059943 11.90090099 16 8 C14.10350449 4.85341334 14.10350449 4.85341334 11 3 C8.69 3 6.38 3 4 3 Z " fill="#171717" transform="translate(293,207)"/>
<path d="M0 0 C5 0 5 0 6.4855957 1.37695312 C6.87835693 2.00537109 7.27111816 2.63378906 7.67578125 3.28125 C8.11083984 3.95800781 8.54589844 4.63476562 8.99414062 5.33203125 C9.42919922 6.04746094 9.86425781 6.76289063 10.3125 7.5 C10.76689453 8.21542969 11.22128906 8.93085938 11.68945312 9.66796875 C12.80881194 11.43537741 13.90652207 13.21646319 15 15 C15.33 10.05 15.66 5.1 16 0 C16.99 0 17.98 0 19 0 C19 7.92 19 15.84 19 24 C14.16755292 22.79188823 13.63067373 21.61705966 10.875 17.625 C10.19179688 16.64789063 9.50859375 15.67078125 8.8046875 14.6640625 C7.52907814 12.78102011 6.26162629 10.89243943 5 9 C4.67 13.95 4.34 18.9 4 24 C2.68 24 1.36 24 0 24 C0 16.08 0 8.16 0 0 Z " fill="#171717" transform="translate(429,207)"/>
<path d="M0 0 C2.25 0.6875 2.25 0.6875 4 2 C5.25 4.625 5.25 4.625 6 7 C3.625 7.125 3.625 7.125 1 7 C0.34 6.34 -0.32 5.68 -1 5 C-3.60280568 5.32041397 -3.60280568 5.32041397 -6 6 C-6 6.99 -6 7.98 -6 9 C-5.30132812 9.25394531 -4.60265625 9.50789062 -3.8828125 9.76953125 C-2.51769531 10.28580078 -2.51769531 10.28580078 -1.125 10.8125 C-0.22007812 11.14894531 0.68484375 11.48539063 1.6171875 11.83203125 C4 13 4 13 6 16 C5.80911038 19.0542339 5.61125872 21.20123861 3.7265625 23.6640625 C0.97745661 25.79119874 -1.47747746 25.4093982 -4.8359375 25.2890625 C-7.68504125 24.90849629 -9.16694609 24.23154389 -11 22 C-11 20.68 -11 19.36 -11 18 C-7 18 -7 18 -5.25 19.5 C-4.8375 19.995 -4.425 20.49 -4 21 C-2.35 20.34 -0.7 19.68 1 19 C1 18.01 1 17.02 1 16 C0.30132812 15.80664062 -0.39734375 15.61328125 -1.1171875 15.4140625 C-2.02726562 15.15367187 -2.93734375 14.89328125 -3.875 14.625 C-4.77992188 14.36976563 -5.68484375 14.11453125 -6.6171875 13.8515625 C-9 13 -9 13 -11 11 C-11.4375 7.625 -11.4375 7.625 -11 4 C-7.6437354 0.15016708 -5.0126452 -0.63991215 0 0 Z " fill="#181818" transform="translate(361,206)"/>
<path d="M0 0 C4.62 0 9.24 0 14 0 C14 0.99 14 1.98 14 3 C10.7 3 7.4 3 4 3 C4 5.31 4 7.62 4 10 C6.64 10 9.28 10 12 10 C12 11.32 12 12.64 12 14 C9.36 14 6.72 14 4 14 C4 15.98 4 17.96 4 20 C6.97 20 9.94 20 13 20 C13 21.32 13 22.64 13 24 C8.71 24 4.42 24 0 24 C0 16.08 0 8.16 0 0 Z " fill="#121212" transform="translate(535,207)"/>
<path d="M0 0 C4.62 0 9.24 0 14 0 C13.67 0.99 13.34 1.98 13 3 C10.03 3 7.06 3 4 3 C4 5.31 4 7.62 4 10 C6.64 10 9.28 10 12 10 C12 11.32 12 12.64 12 14 C9.36 14 6.72 14 4 14 C4 15.98 4 17.96 4 20 C6.97 20 9.94 20 13 20 C13.33 21.32 13.66 22.64 14 24 C9.38 24 4.76 24 0 24 C0 16.08 0 8.16 0 0 Z " fill="#111111" transform="translate(325,207)"/>
<path d="M0 0 C9.86328125 -0.390625 9.86328125 -0.390625 13 0 C15.475014 2.38826093 15.9457556 3.56604478 16.375 7 C15.93840722 10.49274224 15.73612546 11.7613519 13 14 C9.96657425 14.64003132 7.11366719 14.81949755 4 15 C4 17.97 4 20.94 4 24 C2.68 24 1.36 24 0 24 C0 16.08 0 8.16 0 0 Z M4 3 C4 5.64 4 8.28 4 11 C8.14093698 11.20970559 8.14093698 11.20970559 12 10 C12 8.02 12 6.04 12 4 C9.29120665 2.64560332 6.99066732 2.93498549 4 3 Z " fill="#131313" transform="translate(649,207)"/>
<path d="M0 0 C2.475 0.495 2.475 0.495 5 1 C5.34933594 2.07121094 5.69867187 3.14242187 6.05859375 4.24609375 C6.51807145 5.64328104 6.97771546 7.04041365 7.4375 8.4375 C7.78264648 9.49807617 7.78264648 9.49807617 8.13476562 10.58007812 C9.07421147 14.06306795 9.07421147 14.06306795 11 17 C12.98 11.39 14.96 5.78 17 0 C18.65 0 20.3 0 22 0 C19.36498065 8.19663805 16.69266229 16.20437961 13 24 C11.35 24 9.7 24 8 24 C6.84798903 20.93978855 5.70450097 17.87645956 4.5625 14.8125 C4.23701172 13.94818359 3.91152344 13.08386719 3.57617188 12.19335938 C3.26357422 11.35224609 2.95097656 10.51113281 2.62890625 9.64453125 C2.34088135 8.87471924 2.05285645 8.10490723 1.75610352 7.31176758 C0.96498745 4.89294999 0.45097555 2.50262397 0 0 Z " fill="#222222" transform="translate(559,207)"/>
<path d="M0 0 C4.29 0 8.58 0 13 0 C13 0.99 13 1.98 13 3 C10.03 3 7.06 3 4 3 C4 5.31 4 7.62 4 10 C6.64 10 9.28 10 12 10 C12 11.32 12 12.64 12 14 C9.36 14 6.72 14 4 14 C4 15.98 4 17.96 4 20 C6.97 20 9.94 20 13 20 C13 21.32 13 22.64 13 24 C8.71 24 4.42 24 0 24 C0 16.08 0 8.16 0 0 Z " fill="#121212" transform="translate(714,207)"/>
<path d="M0 0 C1.65 0 3.3 0 5 0 C5 6.6 5 13.2 5 20 C7.31 20 9.62 20 12 20 C12.33 21.32 12.66 22.64 13 24 C8.71 24 4.42 24 0 24 C0 16.08 0 8.16 0 0 Z " fill="#1C1C1C" transform="translate(591,207)"/>
<path d="M0 0 C5.61 0 11.22 0 17 0 C17 0.99 17 1.98 17 3 C15.02 3 13.04 3 11 3 C11 9.93 11 16.86 11 24 C9.68 24 8.36 24 7 24 C7 17.07 7 10.14 7 3 C4.69 3 2.38 3 0 3 C0 2.01 0 1.02 0 0 Z " fill="#171717" transform="translate(769,207)"/>
<path d="M0 0 C1.65 0 3.3 0 5 0 C5 7.92 5 15.84 5 24 C3.35 24 1.7 24 0 24 C0 16.08 0 8.16 0 0 Z " fill="#161616" transform="translate(378,207)"/>
<path d="M0 0 C1.32 0 2.64 0 4 0 C4.103125 1.258125 4.20625 2.51625 4.3125 3.8125 C4.63851133 6.3060461 4.86430152 7.77859721 6.1875 9.9375 C10.09843404 12.23011651 14.57648394 12.13010341 19 12 C19 12.99 19 13.98 19 15 C14.26800479 16.57733174 10.44388532 16.52757348 5.75 14.8125 C2.59423918 12.73256673 1.40220347 11.50550868 0 8 C-0.2276512 5.27830346 -0.13936164 2.74077897 0 0 Z " fill="#151515" transform="translate(461,222)"/>
<path d="M0 0 C2.10304477 -0.1080023 4.20766909 -0.18558987 6.3125 -0.25 C8.07013672 -0.31960937 8.07013672 -0.31960937 9.86328125 -0.390625 C13 0 13 0 14.89453125 1.828125 C16.39186965 4.76989231 16.40759841 6.7392127 16 10 C14.5 12.375 14.5 12.375 13 14 C11.35 13.67 9.7 13.34 8 13 C8.66 12.01 9.32 11.02 10 10 C10.66 10 11.32 10 12 10 C12 8.02 12 6.04 12 4 C8.04 4 4.08 4 0 4 C0 2.68 0 1.36 0 0 Z " fill="#111111" transform="translate(649,207)"/>
<path d="M0 0 C2.475 0.495 2.475 0.495 5 1 C6.03282411 4.12116686 7.04919118 7.24744818 8.0625 10.375 C8.35705078 11.26445312 8.65160156 12.15390625 8.95507812 13.0703125 C9.22900391 13.92109375 9.50292969 14.771875 9.78515625 15.6484375 C10.04176025 16.43395996 10.29836426 17.21948242 10.56274414 18.02880859 C11 20 11 20 10 22 C10.66 22.66 11.32 23.32 12 24 C10.68 24 9.36 24 8 24 C6.84798903 20.93978855 5.70450097 17.87645956 4.5625 14.8125 C4.23701172 13.94818359 3.91152344 13.08386719 3.57617188 12.19335938 C3.26357422 11.35224609 2.95097656 10.51113281 2.62890625 9.64453125 C2.34088135 8.87471924 2.05285645 8.10490723 1.75610352 7.31176758 C0.96498745 4.89294999 0.45097555 2.50262397 0 0 Z " fill="#131313" transform="translate(559,207)"/>
<path d="M0 0 C0.99 0 1.98 0 3 0 C5.80732198 4.76121808 5.66013044 9.62115938 5 15 C3.3125 17.75 3.3125 17.75 1 19 C-1.75 18.75 -1.75 18.75 -4 18 C-3.34 17.34 -2.68 16.68 -2 16 C0.72286806 11.91569792 0.38524534 9.85409123 0 5 C-0.30903983 3.66082739 -0.62942911 2.32346746 -1 1 C-0.67 0.67 -0.34 0.34 0 0 Z " fill="#121212" transform="translate(632,210)"/>
<path d="M0 0 C2.97 0.495 2.97 0.495 6 1 C6.103125 1.639375 6.20625 2.27875 6.3125 2.9375 C6.6528125 3.9584375 6.6528125 3.9584375 7 5 C7.99 5.33 8.98 5.66 10 6 C8.68 6 7.36 6 6 6 C5.34 5.34 4.68 4.68 4 4 C3.34 4 2.68 4 2 4 C2 4.66 2 5.32 2 6 C3.32 6.66 4.64 7.32 6 8 C2.3558226 10.4294516 0.28758728 10.16179575 -4 10 C-3.43454163 6.04179141 -2.19097652 3.3340947 0 0 Z " fill="#0196B2" transform="translate(128,216)"/>
<path d="M0 0 C4 2 4 2 5 4 C4.3090625 3.70867187 3.618125 3.41734375 2.90625 3.1171875 C0.08832025 2.71461237 0.08832025 2.71461237 -1.55078125 4.05566406 C-3.27749855 5.6847021 -4.89557273 7.37539254 -6.5 9.125 C-7.05558594 9.70765625 -7.61117187 10.2903125 -8.18359375 10.890625 C-9.28344008 12.04481668 -10.3776959 13.20436362 -11.46606445 14.36938477 C-13.59357887 16.6309905 -15.79365981 18.81554087 -18 21 C-19.10794922 22.10794922 -19.10794922 22.10794922 -20.23828125 23.23828125 C-22.15885417 25.15885417 -24.07942708 27.07942708 -26 29 C-26.66 28.67 -27.32 28.34 -28 28 C-18.76 18.76 -9.52 9.52 0 0 Z " fill="#228DA0" transform="translate(187,171)"/>
<path d="M0 0 C1.32 0.33 2.64 0.66 4 1 C2.02 4.63 0.04 8.26 -2 12 C-3.32 11.67 -4.64 11.34 -6 11 C-6.33 9.02 -6.66 7.04 -7 5 C-6.01 4.67 -5.02 4.34 -4 4 C-3.34 4.33 -2.68 4.66 -2 5 C-1.855625 4.360625 -1.71125 3.72125 -1.5625 3.0625 C-1 1 -1 1 0 0 Z " fill="#1F1F1F" transform="translate(692,219)"/>
<path d="M0 0 C0.66 0.33 1.32 0.66 2 1 C2 1.66 2 2.32 2 3 C3.32 3 4.64 3 6 3 C6.33 2.34 6.66 1.68 7 1 C7.66 1.33 8.32 1.66 9 2 C8.25 4.4375 8.25 4.4375 7 7 C4.02850797 8.24610956 1.19080282 8 -2 8 C-2 8.66 -2 9.32 -2 10 C-2.99 10.33 -3.98 10.66 -5 11 C-5.99 9.68 -6.98 8.36 -8 7 C-6.865625 6.87625 -5.73125 6.7525 -4.5625 6.625 C-2.7990625 6.315625 -2.7990625 6.315625 -1 6 C-0.67 5.34 -0.34 4.68 0 4 C-0.66 3.67 -1.32 3.34 -2 3 C-2 2.34 -2 1.68 -2 1 C-1.34 0.67 -0.68 0.34 0 0 Z " fill="#149DB9" transform="translate(132,219)"/>
<path d="M0 0 C0 1.65 0 3.3 0 5 C-0.7425 4.896875 -1.485 4.79375 -2.25 4.6875 C-5.2323837 4.71315067 -5.2323837 4.71315067 -7.125 7.4375 C-7.74375 8.283125 -8.3625 9.12875 -9 10 C-9.99 10.33 -10.98 10.66 -12 11 C-11.73114094 7.14635352 -11.17995652 5.23651429 -8.8125 2.125 C-5.54353115 -0.34488758 -3.99774632 -0.46485422 0 0 Z " fill="#101010" transform="translate(479,215)"/>
<path d="M0 0 C-4.95 4.95 -9.9 9.9 -15 15 C-15.33 14.01 -15.66 13.02 -16 12 C-15.34 11.67 -14.68 11.34 -14 11 C-13.731875 10.2575 -13.46375 9.515 -13.1875 8.75 C-11.40927241 4.63199926 -8.61355355 2.04406406 -4.875 -0.375 C-3 -1 -3 -1 0 0 Z " fill="#1491AA" transform="translate(144,145)"/>
<path d="M0 0 C2.33996751 1.75497564 2.88364225 3.5690338 3.75 6.3125 C1.375 6.4375 1.375 6.4375 -1.25 6.3125 C-1.91 5.6525 -2.57 4.9925 -3.25 4.3125 C-5.57275177 3.91202556 -7.90739357 3.5727896 -10.25 3.3125 C-10.25 2.3225 -10.25 1.3325 -10.25 0.3125 C-6.89180183 -1.36659909 -3.54125123 -1.08204899 0 0 Z " fill="#1F1F1F" transform="translate(363.25,206.6875)"/>
<path d="M0 0 C0.33 0 0.66 0 1 0 C1.33 2.31 1.66 4.62 2 7 C5.3 7 8.6 7 12 7 C12.33 8.32 12.66 9.64 13 11 C8.71 11 4.42 11 0 11 C0 7.37 0 3.74 0 0 Z " fill="#151515" transform="translate(591,220)"/>
<path d="M0 0 C6.0970809 0.23910121 8.82643256 1.82643256 13 6 C13 6.66 13 7.32 13 8 C8.8015641 8.34986966 7.22530013 7.60104849 4 5 C2.9171875 4.7525 2.9171875 4.7525 1.8125 4.5 C1.214375 4.335 0.61625 4.17 0 4 C-0.33 3.01 -0.66 2.02 -1 1 C-0.67 0.67 -0.34 0.34 0 0 Z " fill="#131313" transform="translate(404,206)"/>
<path d="M0 0 C1.98 0.99 1.98 0.99 4 2 C4.05391993 3.79133978 4.09275571 5.58313899 4.125 7.375 C4.14820313 8.37273437 4.17140625 9.37046875 4.1953125 10.3984375 C4 13 4 13 2 15 C1.34 14.67 0.68 14.34 0 14 C0 9.38 0 4.76 0 0 Z " fill="#151515" transform="translate(754,207)"/>
<path d="M0 0 C3.67362203 1.50925329 5.68797533 3.68814291 8.3125 6.625 C11.28293274 9.82922691 11.28293274 9.82922691 15.140625 11.58984375 C17.24629972 11.61565654 17.24629972 11.61565654 20 11 C20.33 11.99 20.66 12.98 21 14 C20.01 14.66 19.02 15.32 18 16 C17.67 16.66 17.34 17.32 17 18 C14.16266225 15.19151503 11.33081251 12.37756077 8.5 9.5625 C7.68917969 8.76005859 6.87835938 7.95761719 6.04296875 7.13085938 C5.27597656 6.36708984 4.50898437 5.60332031 3.71875 4.81640625 C3.00654297 4.10943604 2.29433594 3.40246582 1.56054688 2.67407227 C0 1 0 1 0 0 Z " fill="#1791A3" transform="translate(89,191)"/>
<path d="M0 0 C0.99 0.33 1.98 0.66 3 1 C1.38989473 5.07376031 -1.53822271 7.76507069 -4.625 10.75 C-5.140625 11.25660156 -5.65625 11.76320313 -6.1875 12.28515625 C-7.45383339 13.52803902 -8.7263144 14.76465276 -10 16 C-10.33 15.01 -10.66 14.02 -11 13 C-8.35775891 8.07311436 -4.9291475 4.60954868 0 2 C0 1.34 0 0.68 0 0 Z " fill="#1392A8" transform="translate(171,112)"/>
<path d="M0 0 C0.99 0.33 1.98 0.66 3 1 C2.74553175 5.32596028 2.3880665 7.52002301 -0.375 10.9375 C-3 13 -3 13 -6 13 C-5.75 10.625 -5.75 10.625 -5 8 C-4.34 7.690625 -3.68 7.38125 -3 7.0625 C-2.34 6.711875 -1.68 6.36125 -1 6 C-0.18415432 2.94091587 -0.18415432 2.94091587 0 0 Z " fill="#212121" transform="translate(311,217)"/>
<path d="M0 0 C0.495 0.165 0.99 0.33 1.5 0.5 C5.03444089 1.20688818 8.39690701 1.06005155 12 1 C12.33 2.32 12.66 3.64 13 5 C8.38 5 3.76 5 -1 5 C-0.67 3.35 -0.34 1.7 0 0 Z " fill="#191919" transform="translate(326,226)"/>
<path d="M0 0 C0.99 0 1.98 0 3 0 C2.62875 1.0725 2.2575 2.145 1.875 3.25 C0.68508268 6.81629347 0.68508268 6.81629347 1.875 9.4375 C2.431875 10.2109375 2.431875 10.2109375 3 11 C1 12 1 12 -3 12 C-3.99 13.485 -3.99 13.485 -5 15 C-5.66 15 -6.32 15 -7 15 C-6.28946017 10.77319899 -4.33988329 9.24211302 -1.1796875 6.5625 C-0.79039062 6.046875 -0.40109375 5.53125 0 5 C-0.32862348 2.89304273 -0.32862348 2.89304273 -1 1 C-0.67 0.67 -0.34 0.34 0 0 Z " fill="#0C94AA" transform="translate(171,91)"/>
<path d="M0 0 C4.29 0 8.58 0 13 0 C13 0.99 13 1.98 13 3 C12.28972656 2.98839844 11.57945312 2.97679687 10.84765625 2.96484375 C9.92855469 2.95582031 9.00945313 2.94679687 8.0625 2.9375 C6.68771484 2.92009766 6.68771484 2.92009766 5.28515625 2.90234375 C3.03406673 2.74050951 3.03406673 2.74050951 2 4 C1.76712992 5.68183948 1.58735834 7.3712416 1.4375 9.0625 C1.35371094 9.98160156 1.26992188 10.90070313 1.18359375 11.84765625 C1.12300781 12.55792969 1.06242188 13.26820313 1 14 C0.67 14 0.34 14 0 14 C0 9.38 0 4.76 0 0 Z " fill="#0E0D0D" transform="translate(714,207)"/>
<path d="M0 0 C3.69790046 1.23263349 3.9354846 2.20052451 5.6875 5.5625 C6.12449219 6.38878906 6.56148437 7.21507812 7.01171875 8.06640625 C7.33785156 8.70449219 7.66398438 9.34257812 8 10 C7.01 10.99 6.02 11.98 5 13 C0.09846827 7.08315098 0.09846827 7.08315098 -0.3125 2.5625 C-0.209375 1.716875 -0.10625 0.87125 0 0 Z " fill="#202020" transform="translate(746,214)"/>
<path d="M0 0 C2.475 0.495 2.475 0.495 5 1 C5.33 1.99 5.66 2.98 6 4 C6.99 4 7.98 4 9 4 C9.99 4.66 10.98 5.32 12 6 C11.67 6.66 11.34 7.32 11 8 C12.32 9.65 13.64 11.3 15 13 C14.67 13.66 14.34 14.32 14 15 C11.66265901 12.69152056 9.33081534 10.37756659 7 8.0625 C6.33226563 7.40314453 5.66453125 6.74378906 4.9765625 6.06445312 C4.34492187 5.43603516 3.71328125 4.80761719 3.0625 4.16015625 C2.47597656 3.57886963 1.88945313 2.99758301 1.28515625 2.39868164 C0 1 0 1 0 0 Z " fill="#158EA3" transform="translate(107,209)"/>
<path d="M0 0 C1 2 1 2 1 5 C1.99 5.33 2.98 5.66 4 6 C4.6875 8.0625 4.6875 8.0625 5 10 C6.98 9.67 8.96 9.34 11 9 C10.01 10.32 9.02 11.64 8 13 C4.78475695 11.59155282 2.67816132 9.89655214 0.25 7.375 C-0.36359375 6.74335938 -0.9771875 6.11171875 -1.609375 5.4609375 C-2.29773437 4.73777344 -2.29773437 4.73777344 -3 4 C-2.01 2.68 -1.02 1.36 0 0 Z M3 3 C4.485 3.99 4.485 3.99 6 5 C5.01 5 4.02 5 3 5 C3 4.34 3 3.68 3 3 Z " fill="#1E94A4" transform="translate(64,160)"/>
<path d="M0 0 C4.29 0 8.58 0 13 0 C11 4 11 4 9 6 C9 5.01 9 4.02 9 3 C6.03 3 3.06 3 0 3 C0 2.01 0 1.02 0 0 Z M8 6 C8.33 6.66 8.66 7.32 9 8 C8.34 7.67 7.68 7.34 7 7 C7.33 6.67 7.66 6.34 8 6 Z " fill="#252525" transform="translate(404,218)"/>
<path d="M0 0 C0.8971875 0.309375 0.8971875 0.309375 1.8125 0.625 C1.8125 1.615 1.8125 2.605 1.8125 3.625 C1.173125 3.728125 0.53375 3.83125 -0.125 3.9375 C-0.805625 4.164375 -1.48625 4.39125 -2.1875 4.625 C-2.5175 5.615 -2.8475 6.605 -3.1875 7.625 C-4.5075 7.295 -5.8275 6.965 -7.1875 6.625 C-4.6484375 -0.796875 -4.6484375 -0.796875 0 0 Z " fill="#1E1E1E" transform="translate(402.1875,207.375)"/>
<path d="M0 0 C3 3.625 3 3.625 3 7 C3.66 7 4.32 7 5 7 C5 7.66 5 8.32 5 9 C5.61875 9.12375 6.2375 9.2475 6.875 9.375 C9 10 9 10 11 12 C9.296875 12.76953125 9.296875 12.76953125 7 13 C4.640625 11.19921875 4.640625 11.19921875 2.25 8.6875 C1.45078125 7.86636719 0.6515625 7.04523438 -0.171875 6.19921875 C-2 4 -2 4 -2 2 C-1.34 2 -0.68 2 0 2 C0 1.34 0 0.68 0 0 Z " fill="#1D90A7" transform="translate(130,227)"/>
<path d="M0 0 C0.33 0.66 0.66 1.32 1 2 C6.445 1.505 6.445 1.505 12 1 C12 2.32 12 3.64 12 5 C10.37536158 5.05395478 8.75021459 5.09277195 7.125 5.125 C6.22007812 5.14820313 5.31515625 5.17140625 4.3828125 5.1953125 C2 5 2 5 0 3 C0 2.01 0 1.02 0 0 Z " fill="#191919" transform="translate(715,226)"/>
<path d="M0 0 C0.66 0 1.32 0 2 0 C2 4.29 2 8.58 2 13 C0.68 13 -0.64 13 -2 13 C-2 10.69 -2 8.38 -2 6 C-1.67 6 -1.34 6 -1 6 C-0.67 4.02 -0.34 2.04 0 0 Z " fill="#111111" transform="translate(679,218)"/>
<path d="M0 0 C4 0 4 0 5.625 1.375 C6.07875 1.91125 6.5325 2.4475 7 3 C7.66 3.66 8.32 4.32 9 5 C8.34 5.66 7.68 6.32 7 7 C3.70285207 6.67028521 2.3773161 6.3773161 0 4 C0 2.68 0 1.36 0 0 Z " fill="#161616" transform="translate(350,224)"/>
<path d="M0 0 C0.66 0.33 1.32 0.66 2 1 C1.01 1 0.02 1 -1 1 C-0.67 0.67 -0.34 0.34 0 0 Z M-3 2 C-2.34 2.33 -1.68 2.66 -1 3 C-1.55728913 6.34373475 -2.35173889 9.03312999 -4 12 C-5.32 11.67 -6.64 11.34 -8 11 C-6.35 8.03 -4.7 5.06 -3 2 Z " fill="#1F1F1F" transform="translate(469,210)"/>
<path d="M0 0 C2.475 0.495 2.475 0.495 5 1 C5.33 3.31 5.66 5.62 6 8 C5.01 8.66 4.02 9.32 3 10 C2.01 6.7 1.02 3.4 0 0 Z " fill="#1B1B1B" transform="translate(559,207)"/>
<path d="M0 0 C2.475 0.99 2.475 0.99 5 2 C4.04578192 3.14926266 3.08647955 4.29430541 2.125 5.4375 C1.59132813 6.07558594 1.05765625 6.71367187 0.5078125 7.37109375 C-1 9 -1 9 -3 10 C-2.25 2.25 -2.25 2.25 0 0 Z " fill="#0E91A7" transform="translate(112,125)"/>
<path d="M0 0 C3.57104439 1.87949705 5.54744301 3.17053157 7 7 C6.34 7 5.68 7 5 7 C4.34 7.66 3.68 8.32 3 9 C1.35 7.35 -0.3 5.7 -2 4 C-1 1 -1 1 0 0 Z " fill="#191919" transform="translate(516,207)"/>
<path d="M0 0 C1.67542976 0.28604898 3.34385343 0.61781233 5 1 C1.69984002 5.13937592 -1.17324411 8.58662205 -6 11 C-6 10.01 -6 9.02 -6 8 C-5.01 8 -4.02 8 -3 8 C-2.690625 6.865625 -2.38125 5.73125 -2.0625 4.5625 C-1 1 -1 1 0 0 Z " fill="#188FA8" transform="translate(176,197)"/>
<path d="M0 0 C0.99 0.33 1.98 0.66 3 1 C-3.15034169 8.48291572 -3.15034169 8.48291572 -7 11 C-7.33 9.68 -7.66 8.36 -8 7 C-7.34 7 -6.68 7 -6 7 C-5.67 6.34 -5.34 5.68 -5 5 C-4.34 5 -3.68 5 -3 5 C-2.67 4.01 -2.34 3.02 -2 2 C-1.34 1.34 -0.68 0.68 0 0 Z " fill="#148EA6" transform="translate(174,153)"/>
<path d="M0 0 C0.66 0 1.32 0 2 0 C2 2.64 2 5.28 2 8 C0.35 8 -1.3 8 -3 8 C-3 5.69 -3 3.38 -3 1 C-2.01 1.33 -1.02 1.66 0 2 C0 1.34 0 0.68 0 0 Z " fill="#161616" transform="translate(381,223)"/>
<path d="M0 0 C3.375 0.625 3.375 0.625 7 2 C8.25 5 8.25 5 9 8 C9.99 8.66 10.98 9.32 12 10 C8 10 8 10 5.859375 8.06640625 C5.16328125 7.24011719 4.4671875 6.41382813 3.75 5.5625 C3.04359375 4.73878906 2.3371875 3.91507813 1.609375 3.06640625 C0 1 0 1 0 0 Z " fill="#1D91A4" transform="translate(125,185)"/>
<path d="M0 0 C0 3.9787776 -1.4116787 5.05218963 -4 8 C-4.639375 8.7425 -5.27875 9.485 -5.9375 10.25 C-8.30700893 12.26049242 -9.94736618 12.66081846 -13 13 C-9.13242719 8.04467233 -4.81123996 4.03523352 0 0 Z " fill="#2496A5" transform="translate(124,100)"/>
<path d="M0 0 C1.65 0 3.3 0 5 0 C5 4.95 5 9.9 5 15 C4.67 15 4.34 15 4 15 C3.67 12.36 3.34 9.72 3 7 C2.01 7.495 2.01 7.495 1 8 C0.67 5.36 0.34 2.72 0 0 Z " fill="#3B3B3B" transform="translate(378,207)"/>
<path d="M0 0 C0.8971875 0.309375 0.8971875 0.309375 1.8125 0.625 C-0.0625 4.5 -0.0625 4.5 -1.1875 5.625 C-3.18708364 5.66580783 -5.18795254 5.66754356 -7.1875 5.625 C-5.69046729 2.17030914 -4.27938051 -0.73360809 0 0 Z " fill="#222222" transform="translate(364.1875,225.375)"/>
<path d="M0 0 C1.32 0 2.64 0 4 0 C4.125 3.375 4.125 3.375 4 7 C3.34 7.66 2.68 8.32 2 9 C1.67 9.66 1.34 10.32 1 11 C0 10 0 10 -0.09765625 7.71484375 C-0.08605469 6.79832031 -0.07445312 5.88179687 -0.0625 4.9375 C-0.05347656 4.01839844 -0.04445313 3.09929687 -0.03515625 2.15234375 C-0.02355469 1.44207031 -0.01195312 0.73179687 0 0 Z " fill="#151515" transform="translate(394,214)"/>
<path d="M0 0 C3.96 0 7.92 0 12 0 C12 0.99 12 1.98 12 3 C10.37581255 3.08090971 8.75048255 3.13914995 7.125 3.1875 C5.76761719 3.23970703 5.76761719 3.23970703 4.3828125 3.29296875 C3.20332031 3.14794922 3.20332031 3.14794922 2 3 C1.34 2.01 0.68 1.02 0 0 Z " fill="#1B1A1B" transform="translate(537,207)"/>
<path d="M0 0 C0 0.99 0 1.98 0 3 C-3.47325181 4.1577506 -6.36067448 4.06866652 -10 4 C-10.33 3.34 -10.66 2.68 -11 2 C-7.17679443 0.57741188 -4.08718695 -0.24042276 0 0 Z " fill="#1C1C1C" transform="translate(480,234)"/>
<path d="M0 0 C-0.33 0.99 -0.66 1.98 -1 3 C-4.28305377 4.58072959 -7.54536928 5.84845643 -11 7 C-10.63802104 4.37565253 -10.17343943 3.17986311 -8.3125 1.25 C-5.39572708 -0.32663401 -3.26709987 -0.22275681 0 0 Z " fill="#171717" transform="translate(478,209)"/>
<path d="M0 0 C1.32 0.33 2.64 0.66 4 1 C1.03 3.97 -1.94 6.94 -5 10 C-5.33 9.34 -5.66 8.68 -6 8 C-3.54545455 2.27272727 -3.54545455 2.27272727 -1 1 C-0.67 0.67 -0.34 0.34 0 0 Z " fill="#148EA4" transform="translate(150,177)"/>
<path d="M0 0 C1 3 1 3 1 5 C-1.25 7.1875 -1.25 7.1875 -4 9 C-5.32 8.67 -6.64 8.34 -8 8 C-5.36 5.36 -2.72 2.72 0 0 Z " fill="#209BAB" transform="translate(180,130)"/>
<path d="M0 0 C3.36513174 0.58019513 4.63451473 1.63451473 7 4 C9.10332891 4.71447643 9.10332891 4.71447643 11 5 C10.01 5.495 10.01 5.495 9 6 C9.33 7.32 9.66 8.64 10 10 C2.51708428 3.84965831 2.51708428 3.84965831 0 0 Z " fill="#1B95AB" transform="translate(155,77)"/>
<path d="M0 0 C1.98 1.65 3.96 3.3 6 5 C5.67 5.99 5.34 6.98 5 8 C2.625 7.75 2.625 7.75 0 7 C-1.3125 4.9375 -1.3125 4.9375 -2 3 C-1.34 3 -0.68 3 0 3 C0 2.01 0 1.02 0 0 Z " fill="#131313" transform="translate(469,223)"/>
<path d="M0 0 C2.13671875 0.39453125 2.13671875 0.39453125 4 1 C2.88121617 2.17262904 1.75476949 3.33795138 0.625 4.5 C-0.00148437 5.1496875 -0.62796875 5.799375 -1.2734375 6.46875 C-3 8 -3 8 -5 8 C-4.46104623 4.2273236 -3.00464642 2.31787009 0 0 Z " fill="#1691A0" transform="translate(158,217)"/>
<path d="M0 0 C1.17539996 0.92652701 2.34010577 1.86663387 3.5 2.8125 C4.1496875 3.33457031 4.799375 3.85664063 5.46875 4.39453125 C7 6 7 6 7 9 C6.01 8.67 5.02 8.34 4 8 C3.01 8.495 3.01 8.495 2 9 C2 7.68 2 6.36 2 5 C1.34 4.67 0.68 4.34 0 4 C0 2.68 0 1.36 0 0 Z " fill="#229BAE" transform="translate(114,196)"/>
<path d="M0 0 C0.99 0.33 1.98 0.66 3 1 C1.02 2.98 -0.96 4.96 -3 7 C-2.690625 7.61875 -2.38125 8.2375 -2.0625 8.875 C-1.375 10.25 -0.6875 11.625 0 13 C-2.475 12.01 -2.475 12.01 -5 11 C-5.3125 8.3125 -5.3125 8.3125 -5 5 C-2.5 2.125 -2.5 2.125 0 0 Z " fill="#1C8CA3" transform="translate(108,177)"/>
<path d="M0 0 C0.66 1.32 1.32 2.64 2 4 C1.0925 4.4125 0.185 4.825 -0.75 5.25 C-3.79665618 6.89050718 -5.71126806 8.44718361 -8 11 C-8.66 10.67 -9.32 10.34 -10 10 C-6.7 6.7 -3.4 3.4 0 0 Z " fill="#1691AC" transform="translate(136,131)"/>
<path d="M0 0 C-2.31 2.31 -4.62 4.62 -7 7 C-9 4 -9 4 -9 2 C-8.01 2 -7.02 2 -6 2 C-6 1.34 -6 0.68 -6 0 C-2.25 -1.125 -2.25 -1.125 0 0 Z " fill="#1093A5" transform="translate(137,108)"/>
<path d="M0 0 C2.31 0.66 4.62 1.32 7 2 C6.67 3.32 6.34 4.64 6 6 C3.69 5.34 1.38 4.68 -1 4 C-0.67 2.68 -0.34 1.36 0 0 Z " fill="#242424" transform="translate(478,208)"/>
<path d="M0 0 C0 2.83967231 -0.40267181 5.23735711 -1 8 C-0.01 8.33 0.98 8.66 2 9 C1.67 9.99 1.34 10.98 1 12 C-0.98 10.35 -2.96 8.7 -5 7 C-3.70700306 4.11562221 -2.34058637 2.12780579 0 0 Z " fill="#339BAB" transform="translate(88,179)"/>
<path d="M0 0 C1.11375 1.0209375 1.11375 1.0209375 2.25 2.0625 C4.75949064 4.28353676 4.75949064 4.28353676 7.3125 3.75 C7.869375 3.5025 8.42625 3.255 9 3 C8.67 4.32 8.34 5.64 8 7 C5.69 7 3.38 7 1 7 C0 2.25 0 2.25 0 0 Z " fill="#1E97A9" transform="translate(129,170)"/>
<path d="M0 0 C0.99 0.33 1.98 0.66 3 1 C2.01 2.32 1.02 3.64 0 5 C1.32 6.65 2.64 8.3 4 10 C1.5625 9.625 1.5625 9.625 -1 9 C-2.35439668 6.29120665 -2.06501451 3.99066732 -2 1 C-1.34 0.67 -0.68 0.34 0 0 Z " fill="#168EA1" transform="translate(125,160)"/>
<path d="M0 0 C1.32 0.33 2.64 0.66 4 1 C0.535 3.97 0.535 3.97 -3 7 C-3.66 6.67 -4.32 6.34 -5 6 C-4.6875 4.0625 -4.6875 4.0625 -4 2 C-3.01 1.67 -2.02 1.34 -1 1 C-0.67 0.67 -0.34 0.34 0 0 Z " fill="#1191A8" transform="translate(198,129)"/>
<path d="M0 0 C0 0.99 0 1.98 0 3 C0.33 4.32 0.66 5.64 1 7 C-1.97 7.66 -4.94 8.32 -8 9 C-2.25 2.25 -2.25 2.25 0 0 Z " fill="#1A94AA" transform="translate(151,116)"/>
<path d="M0 0 C1.98 0 3.96 0 6 0 C6 1.65 6 3.3 6 5 C4.02 5 2.04 5 0 5 C0 3.35 0 1.7 0 0 Z " fill="#2D2D2D" transform="translate(473,215)"/>
<path d="M0 0 C0.99 0.33 1.98 0.66 3 1 C3 2.98 3 4.96 3 7 C1.68 7 0.36 7 -1 7 C-1.04254356 5.00045254 -1.04080783 2.99958364 -1 1 C-0.67 0.67 -0.34 0.34 0 0 Z " fill="#151515" transform="translate(650,224)"/>
<path d="M0 0 C1.32 0.66 2.64 1.32 4 2 C3.25 3.9375 3.25 3.9375 2 6 C-0.125 6.75 -0.125 6.75 -2 7 C-1.125 1.125 -1.125 1.125 0 0 Z " fill="#141414" transform="translate(573,217)"/>
<path d="M0 0 C1.6396875 0.0928125 1.6396875 0.0928125 3.3125 0.1875 C2.9825 1.1775 2.6525 2.1675 2.3125 3.1875 C-0.6575 3.1875 -3.6275 3.1875 -6.6875 3.1875 C-3.6875 0.1875 -3.6875 0.1875 0 0 Z " fill="#161616" transform="translate(335.6875,206.8125)"/>
<path d="M0 0 C1.32 0.33 2.64 0.66 4 1 C3.67 1.99 3.34 2.98 3 4 C-0.375 4.125 -0.375 4.125 -4 4 C-4.66 3.34 -5.32 2.68 -6 2 C-4.02 1.67 -2.04 1.34 0 1 C0 0.67 0 0.34 0 0 Z " fill="#1E1E1E" transform="translate(545,227)"/>
<path d="M0 0 C1 2 1 2 1 6 C-1.64 6.66 -4.28 7.32 -7 8 C-6.02133662 6.85373678 -5.04205413 5.70800212 -4.0625 4.5625 C-3.51722656 3.92441406 -2.97195312 3.28632813 -2.41015625 2.62890625 C-1.63204305 1.73008851 -0.84063472 0.84063472 0 0 Z " fill="#1A93AB" transform="translate(106,161)"/>
<path d="M0 0 C3.37462715 0.54723683 5.08235 1.0549 8 3 C4.78548731 4.60725635 1.56387464 4.05748185 -2 4 C-1.01 3.67 -0.02 3.34 1 3 C0.67 2.01 0.34 1.02 0 0 Z " fill="#2C2C2C" transform="translate(624,227)"/>
<path d="M0 0 C1.32 0.33 2.64 0.66 4 1 C4 2.65 4 4.3 4 6 C2.68 6.33 1.36 6.66 0 7 C0 4.69 0 2.38 0 0 Z " fill="#131313" transform="translate(613,215)"/>
<path d="M0 0 C1.65 1.65 3.3 3.3 5 5 C3.68 5.99 2.36 6.98 1 8 C1 7.01 1 6.02 1 5 C0.34 5 -0.32 5 -1 5 C-0.67 3.35 -0.34 1.7 0 0 Z " fill="#1E96A5" transform="translate(210,112)"/>
<path d="M0 0 C0.99 0 1.98 0 3 0 C3.45375 0.639375 3.9075 1.27875 4.375 1.9375 C5.8662773 4.24764553 5.8662773 4.24764553 8.6875 4.75 C9.450625 4.8325 10.21375 4.915 11 5 C10.01 6.485 10.01 6.485 9 8 C4.7257442 6.4169423 2.73468206 3.49431596 0 0 Z " fill="#248EA3" transform="translate(80,101)"/>
<path d="M0 0 C1.65 0 3.3 0 5 0 C4.34 1.65 3.68 3.3 3 5 C1.68 5 0.36 5 -1 5 C-0.67 3.35 -0.34 1.7 0 0 Z " fill="#141414" transform="translate(576,207)"/>
<path d="M0 0 C1.32 0.99 2.64 1.98 4 3 C2.25 6.875 2.25 6.875 0 8 C-0.79953138 4.71303767 -1.09658936 3.28976808 0 0 Z " fill="#1C8EA7" transform="translate(194,177)"/>
<path d="M0 0 C1.98 0 3.96 0 6 0 C5.67 1.32 5.34 2.64 5 4 C3.35 4 1.7 4 0 4 C0 2.68 0 1.36 0 0 Z " fill="#3B3B3B" transform="translate(652,218)"/>
<path d="M0 0 C1.1725131 0.95117134 2.33787015 1.91117009 3.5 2.875 C4.47453125 3.67550781 4.47453125 3.67550781 5.46875 4.4921875 C5.9740625 4.98976562 6.479375 5.48734375 7 6 C7 6.66 7 7.32 7 8 C6.01 8 5.02 8 4 8 C3.67 6.68 3.34 5.36 3 4 C2.01 4 1.02 4 0 4 C0 2.68 0 1.36 0 0 Z " fill="#1F97A9" transform="translate(131,213)"/>
<path d="M0 0 C1.65 0.33 3.3 0.66 5 1 C4.34 2.65 3.68 4.3 3 6 C1.68 5.34 0.36 4.68 -1 4 C-0.67 2.68 -0.34 1.36 0 0 Z " fill="#2B2B2B" transform="translate(615,211)"/>
<path d="M0 0 C0.33 0.99 0.66 1.98 1 3 C0.67 3.66 0.34 4.32 0 5 C-0.66 5 -1.32 5 -2 5 C-2.33 5.66 -2.66 6.32 -3 7 C-5.0625 7.625 -5.0625 7.625 -7 8 C-6.02133662 6.85373678 -5.04205413 5.70800212 -4.0625 4.5625 C-3.51722656 3.92441406 -2.97195312 3.28632813 -2.41015625 2.62890625 C-1.63204305 1.73008851 -0.84063472 0.84063472 0 0 Z " fill="#188EA1" transform="translate(150,208)"/>
<path d="M0 0 C1.98 0.99 1.98 0.99 4 2 C4 3.65 4 5.3 4 7 C3.67 6.01 3.34 5.02 3 4 C2.67 4.99 2.34 5.98 2 7 C1.34 7 0.68 7 0 7 C0 4.69 0 2.38 0 0 Z " fill="#0F0F0F" transform="translate(754,207)"/>
<path d="M0 0 C1.65 0 3.3 0 5 0 C6.06775224 1.96466413 7.06553465 3.96855359 8 6 C7.67 6.66 7.34 7.32 7 8 C4.35247996 5.42215154 2.05567935 3.08351902 0 0 Z " fill="#1D98A5" transform="translate(142,105)"/>
<path d="M0 0 C3.78717347 1.48781815 5.77407001 3.61988409 8 7 C7.67 7.99 7.34 8.98 7 10 C6.401875 9.236875 5.80375 8.47375 5.1875 7.6875 C3.15995888 5.08664741 3.15995888 5.08664741 1.25 3.3125 C0 2 0 2 0 0 Z " fill="#2A94A1" transform="translate(185,87)"/>
<path d="M0 0 C0.99 0 1.98 0 3 0 C1.14285714 7.57142857 1.14285714 7.57142857 -2 10 C-2.66 9.67 -3.32 9.34 -4 9 C-3.319375 8.4225 -2.63875 7.845 -1.9375 7.25 C-0.9784375 6.13625 -0.9784375 6.13625 0 5 C-0.22757731 2.83700789 -0.22757731 2.83700789 -1 1 C-0.67 0.67 -0.34 0.34 0 0 Z " fill="#2197A9" transform="translate(171,91)"/>
<path d="M0 0 C1.65 0.33 3.3 0.66 5 1 C4.01 2.485 4.01 2.485 3 4 C1.35 3.67 -0.3 3.34 -2 3 C-1.34 2.01 -0.68 1.02 0 0 Z " fill="#141414" transform="translate(659,217)"/>
<path d="M0 0 C2.31 0 4.62 0 7 0 C7 0.99 7 1.98 7 3 C4.69 3 2.38 3 0 3 C0 2.01 0 1.02 0 0 Z " fill="#121212" transform="translate(769,207)"/>
<path d="M0 0 C2.375 0.25 2.375 0.25 5 1 C5.66 2.32 6.32 3.64 7 5 C2.545 4.01 2.545 4.01 -2 3 C-1.34 2.01 -0.68 1.02 0 0 Z " fill="#329AA2" transform="translate(203,107)"/>
<path d="M0 0 C0 0.99 0 1.98 0 3 C-2.31 3 -4.62 3 -7 3 C-6.67 2.01 -6.34 1.02 -6 0 C-3 -1 -3 -1 0 0 Z " fill="#272727" transform="translate(339,228)"/>
<path d="M0 0 C3 1 3 1 4.1875 3.0625 C4.455625 3.701875 4.72375 4.34125 5 5 C3.35 5.33 1.7 5.66 0 6 C0 4.02 0 2.04 0 0 Z " fill="#282828" transform="translate(746,214)"/>
<path d="M0 0 C0.66 0.33 1.32 0.66 2 1 C1.67 2.32 1.34 3.64 1 5 C-0.65 4.67 -2.3 4.34 -4 4 C-2.68 2.68 -1.36 1.36 0 0 Z " fill="#101010" transform="translate(620,207)"/>
<path d="M0 0 C0.99 0.33 1.98 0.66 3 1 C1.35830472 3.02054804 -0.30911778 5.02043058 -2 7 C-2.33 7 -2.66 7 -3 7 C-3 5.35 -3 3.7 -3 2 C-2.34 2 -1.68 2 -1 2 C-0.67 1.34 -0.34 0.68 0 0 Z " fill="#178CA7" transform="translate(158,169)"/>
<path d="M0 0 C1.485 0.99 1.485 0.99 3 2 C2.625 4.4375 2.625 4.4375 2 7 C1.01 7.495 1.01 7.495 0 8 C-0.79953138 4.71303767 -1.09658936 3.28976808 0 0 Z " fill="#1394A8" transform="translate(188,92)"/>
<path d="M0 0 C1.17219543 0.78345715 2.33763668 1.57702836 3.5 2.375 C4.47453125 3.03628906 4.47453125 3.03628906 5.46875 3.7109375 C5.9740625 4.13632813 6.479375 4.56171875 7 5 C7 5.66 7 6.32 7 7 C6.34 7 5.68 7 5 7 C5 6.34 5 5.68 5 5 C3.35 5 1.7 5 0 5 C-0.33 4.34 -0.66 3.68 -1 3 C-0.67 2.01 -0.34 1.02 0 0 Z " fill="#1792A0" transform="translate(162,64)"/>
<path d="M0 0 C0 0.66 0 1.32 0 2 C-1.8125 2.6875 -1.8125 2.6875 -4 3 C-5.75 1.5625 -5.75 1.5625 -7 0 C-4.3333581 -1.33332095 -2.83319697 -0.67102033 0 0 Z " fill="#111111" transform="translate(625,228)"/>
<path d="M0 0 C-0.33 0.99 -0.66 1.98 -1 3 C-2.65 3 -4.3 3 -6 3 C-6 2.01 -6 1.02 -6 0 C-3.50907189 -1.24546405 -2.58919267 -0.7767578 0 0 Z " fill="#242424" transform="translate(486,228)"/>
<path d="M0 0 C0.66 0.33 1.32 0.66 2 1 C2.625 3.5625 2.625 3.5625 3 6 C2.01 6.66 1.02 7.32 0 8 C-0.38063221 5.6739143 -0.71269945 3.33944736 -1 1 C-0.67 0.67 -0.34 0.34 0 0 Z " fill="#171717" transform="translate(684,217)"/>
<path d="M0 0 C0.66 0.33 1.32 0.66 2 1 C1.01 1 0.02 1 -1 1 C-0.67 0.67 -0.34 0.34 0 0 Z M-3 2 C-2.34 2.33 -1.68 2.66 -1 3 C-1.33 4.65 -1.66 6.3 -2 8 C-2.99 7.67 -3.98 7.34 -5 7 C-4.34 5.35 -3.68 3.7 -3 2 Z " fill="#434343" transform="translate(469,210)"/>
<path d="M0 0 C0.66 0.33 1.32 0.66 2 1 C1.67 1.66 1.34 2.32 1 3 C1.66 3 2.32 3 3 3 C2.67 3.99 2.34 4.98 2 6 C0.68 5.67 -0.64 5.34 -2 5 C-1.34 3.35 -0.68 1.7 0 0 Z " fill="#3B3B3B" transform="translate(397,209)"/>
<path d="M0 0 C1.98 1.65 3.96 3.3 6 5 C4.125 5.625 4.125 5.625 2 6 C1.34 5.34 0.68 4.68 0 4 C0 2.68 0 1.36 0 0 Z " fill="#1F97A2" transform="translate(154,97)"/>
<path d="M0 0 C3 3.75 3 3.75 3 6 C1.0625 5.6875 1.0625 5.6875 -1 5 C-1.33 4.01 -1.66 3.02 -2 2 C-1.34 2 -0.68 2 0 2 C0 1.34 0 0.68 0 0 Z " fill="#0F91A9" transform="translate(130,227)"/>
<path d="M0 0 C1.32 0 2.64 0 4 0 C4.33 1.32 4.66 2.64 5 4 C3.35 3.67 1.7 3.34 0 3 C0 2.01 0 1.02 0 0 Z " fill="#1C1C1C" transform="translate(753,227)"/>
<path d="M0 0 C0.66 0 1.32 0 2 0 C2 2.64 2 5.28 2 8 C1.34 8 0.68 8 0 8 C-1.125 2.25 -1.125 2.25 0 0 Z " fill="#464646" transform="translate(381,223)"/>
<path d="M0 0 C0.99 0.33 1.98 0.66 3 1 C2.67 2.65 2.34 4.3 2 6 C0 5 0 5 -0.6875 3 C-0.790625 2.34 -0.89375 1.68 -1 1 C-0.67 0.67 -0.34 0.34 0 0 Z " fill="#212121" transform="translate(634,220)"/>
<path d="M0 0 C0.99 0.99 1.98 1.98 3 3 C2.01 4.32 1.02 5.64 0 7 C-0.66 5.35 -1.32 3.7 -2 2 C-1.34 1.34 -0.68 0.68 0 0 Z " fill="#232323" transform="translate(615,220)"/>
<path d="M0 0 C0.66 0 1.32 0 2 0 C1.67 2.31 1.34 4.62 1 7 C-1 5 -1 5 -2 2 C-1.34 1.34 -0.68 0.68 0 0 Z " fill="#1E1E1E" transform="translate(471,216)"/>
<path d="M0 0 C0.78375 0.04125 1.5675 0.0825 2.375 0.125 C1.385 0.62 1.385 0.62 0.375 1.125 C0.375 1.785 0.375 2.445 0.375 3.125 C-1.605 4.115 -1.605 4.115 -3.625 5.125 C-3.955 4.135 -4.285 3.145 -4.625 2.125 C-2.625 0.125 -2.625 0.125 0 0 Z " fill="#222222" transform="translate(625.625,205.875)"/>
<path d="M0 0 C0 3 0 3 -2.5 5.6875 C-3.325 6.450625 -4.15 7.21375 -5 8 C-5.66 7.67 -6.32 7.34 -7 7 C-4.69 4.69 -2.38 2.38 0 0 Z " fill="#309DA6" transform="translate(163,147)"/>
<path d="M0 0 C0 2.62113708 -0.31292445 4.50935112 -1 7 C-2.32 6.67 -3.64 6.34 -5 6 C-3.35 4.02 -1.7 2.04 0 0 Z " fill="#1493A8" transform="translate(142,125)"/>
<path d="M0 0 C1.98 0 3.96 0 6 0 C4.35 1.65 2.7 3.3 1 5 C0.67 3.35 0.34 1.7 0 0 Z " fill="#1493A9" transform="translate(90,101)"/>
<path d="M0 0 C0.33 0.99 0.66 1.98 1 3 C-1.375 4.5625 -1.375 4.5625 -4 6 C-4.66 5.67 -5.32 5.34 -6 5 C-4.02 3.35 -2.04 1.7 0 0 Z " fill="#5AB0C7" transform="translate(138,86)"/>
</svg>
