<?xml version="1.0" encoding="UTF-8"?>
<svg version="1.1" xmlns="http://www.w3.org/2000/svg" width="120" height="40">
<path d="M0 0 C1.17825358 0.90172468 2.34231577 1.82201502 3.5 2.75 C4.1496875 3.26046875 4.799375 3.7709375 5.46875 4.296875 C7 6 7 6 7 10 C5.46875 11.921875 5.46875 11.921875 3.5 13.75 C2.8503125 14.36359375 2.200625 14.9771875 1.53125 15.609375 C1.0259375 16.06828125 0.520625 16.5271875 0 17 C1.07543783 16.01216806 2.16073217 15.03506057 3.25 14.0625 C3.85328125 13.51722656 4.4565625 12.97195312 5.078125 12.41015625 C7.08467305 10.93787201 8.57002449 10.42470811 11 10 C9.53424802 13.37198902 7.64818479 15.64987004 5.0625 18.25 C4.02802734 19.30960938 4.02802734 19.30960938 2.97265625 20.390625 C1 22 1 22 -2 22 C-1.01 22.66 -0.02 23.32 1 24 C3.31 22.02 5.62 20.04 8 18 C8.33 18.99 8.66 19.98 9 21 C5.04 24.465 5.04 24.465 1 28 C-4.46875 23.703125 -4.46875 23.703125 -6 22 C-6 18 -6 18 -4.46875 16.078125 C-3.8190625 15.47484375 -3.169375 14.8715625 -2.5 14.25 C-1.8503125 13.63640625 -1.200625 13.0228125 -0.53125 12.390625 C0.22671875 11.70226562 0.22671875 11.70226562 1 11 C0.54109375 11.40992188 0.0821875 11.81984375 -0.390625 12.2421875 C-1.00421875 12.78101563 -1.6178125 13.31984375 -2.25 13.875 C-3.15492187 14.67550781 -3.15492187 14.67550781 -4.078125 15.4921875 C-5.97418746 16.9797487 -7.81290005 18.00322436 -10 19 C-9.46348047 14.96685318 -7.45798792 13.05548319 -4.625 10.25 C-3.83351563 9.45078125 -3.04203125 8.6515625 -2.2265625 7.828125 C0 6 0 6 3 6 C1.32171592 5.03375833 1.32171592 5.03375833 -1 5 C-3.24609835 6.46818136 -5.02378677 8.15852858 -7 10 C-7 7 -7 7 -5.46875 5.17578125 C-4.8190625 4.56089844 -4.169375 3.94601563 -3.5 3.3125 C-2.8503125 2.68988281 -2.200625 2.06726563 -1.53125 1.42578125 C-1.0259375 0.95527344 -0.520625 0.48476562 0 0 Z " fill="#178298" transform="translate(19,5)"/>
<path d="M0 0 C2.475 0.495 2.475 0.495 5 1 C6.8125 4.5625 6.8125 4.5625 8 8 C9.32 5.36 10.64 2.72 12 0 C13.32 0 14.64 0 16 0 C16 4.95 16 9.9 16 15 C14.68 15 13.36 15 12 15 C11.67 14.34 11.34 13.68 11 13 C10.67 13.66 10.34 14.32 10 15 C8.68 15 7.36 15 6 15 C5.67 14.01 5.34 13.02 5 12 C4.67 12.99 4.34 13.98 4 15 C2.68 15 1.36 15 0 15 C0 10.05 0 5.1 0 0 Z " fill="#060706" transform="translate(40,9)"/>
<path d="M0 0 C4.875 3.75 4.875 3.75 6 6 C6.33 4.35 6.66 2.7 7 1 C8.32 0.67 9.64 0.34 11 0 C11 4.95 11 9.9 11 15 C6 14 6 14 4.1875 11.4375 C3.795625 10.633125 3.40375 9.82875 3 9 C2.67 10.98 2.34 12.96 2 15 C0.68 15 -0.64 15 -2 15 C-2 10.38 -2 5.76 -2 1 C-1.34 0.67 -0.68 0.34 0 0 Z " fill="#070606" transform="translate(99,9)"/>
<path d="M0 0 C2.91308822 1.45654411 3.05452316 3.35387648 4.125 6.375 C4.47820312 7.35210938 4.83140625 8.32921875 5.1953125 9.3359375 C6 12 6 12 6 15 C4.68 15 3.36 15 2 15 C1.67 14.34 1.34 13.68 1 13 C-0.32 13 -1.64 13 -3 13 C-3.33 13.66 -3.66 14.32 -4 15 C-5.32 15 -6.64 15 -8 15 C-7.36511918 10.07967365 -5.54680948 5.25053721 -3 1 C-2.01 0.67 -1.02 0.34 0 0 Z M-2 7 C-2 7.66 -2 8.32 -2 9 C-1.34 9 -0.68 9 0 9 C0 8.34 0 7.68 0 7 C-0.66 7 -1.32 7 -2 7 Z " fill="#050505" transform="translate(88,9)"/>
<path d="M0 0 C0.58305225 3.84814487 -0.2997117 5.76308635 -2.5 8.8125 C-3.32219744 9.88364055 -4.15204049 10.9491359 -5 12 C-3.35 11.67 -1.7 11.34 0 11 C0 12.32 0 13.64 0 15 C-3.3 15 -6.6 15 -10 15 C-9.46884894 10.48521602 -7.63379708 7.65333143 -5 4 C-6.65 4 -8.3 4 -10 4 C-10 3.01 -10 2.02 -10 1 C-2.25 0 -2.25 0 0 0 Z " fill="#050506" transform="translate(77,9)"/>
<path d="M0 0 C1.32 0.33 2.64 0.66 4 1 C4 5.62 4 10.24 4 15 C2.68 15 1.36 15 0 15 C0 10.05 0 5.1 0 0 Z " fill="#0F0D0E" transform="translate(60,9)"/>
<path d="M0 0 C0.2475 0.598125 0.495 1.19625 0.75 1.8125 C2.16370012 4.28647521 3.65055383 5.43370255 6 7 C8.31 5.02 10.62 3.04 13 1 C13.33 1.99 13.66 2.98 14 4 C11.36 6.31 8.72 8.62 6 11 C0.53125 6.703125 0.53125 6.703125 -1 5 C-1 1 -1 1 0 0 Z " fill="#207F90" transform="translate(14,22)"/>
<path d="M0 0 C0.66 0.33 1.32 0.66 2 1 C2 4 2 4 0.390625 5.75390625 C-0.31578125 6.35074219 -1.0221875 6.94757812 -1.75 7.5625 C-2.44609375 8.16191406 -3.1421875 8.76132812 -3.859375 9.37890625 C-5.84477963 10.88245173 -7.7375439 11.97578001 -10 13 C-9.48223379 8.89552608 -7.35372556 7.04300477 -4.4375 4.25 C-3.61121094 3.45078125 -2.78492188 2.6515625 -1.93359375 1.828125 C-1.29550781 1.22484375 -0.65742188 0.6215625 0 0 Z " fill="#26848F" transform="translate(19,11)"/>
<path d="M0 0 C0.36923077 4.55384615 0.36923077 4.55384615 -1.5 6.8125 C-1.995 7.204375 -2.49 7.59625 -3 8 C-3.66 7.67 -4.32 7.34 -5 7 C-5 6.01 -5 5.02 -5 4 C-6.65 4 -8.3 4 -10 4 C-10 3.01 -10 2.02 -10 1 C-2.25 0 -2.25 0 0 0 Z " fill="#131313" transform="translate(77,9)"/>
<path d="M0 0 C-1.46966358 3.39859703 -3.38037514 5.64963709 -6 8.25 C-6.70125 8.95640625 -7.4025 9.6628125 -8.125 10.390625 C-10 12 -10 12 -12 12 C-12 8 -12 8 -9.8828125 5.859375 C-8.97273438 5.16328125 -8.06265625 4.4671875 -7.125 3.75 C-6.22007813 3.04359375 -5.31515625 2.3371875 -4.3828125 1.609375 C-2 0 -2 0 0 0 Z " fill="#218192" transform="translate(30,15)"/>
<path d="M0 0 C2 1 2 1 2.66796875 2.77734375 C2.83941406 3.49019531 3.01085937 4.20304688 3.1875 4.9375 C3.36667969 5.64777344 3.54585938 6.35804687 3.73046875 7.08984375 C4 9 4 9 3 11 C2.34 10.67 1.68 10.34 1 10 C1 8.35 1 6.7 1 5 C0.67 5.66 0.34 6.32 0 7 C-2.0625 7.625 -2.0625 7.625 -4 8 C-3.34 6.02 -2.68 4.04 -2 2 C-1.34 2 -0.68 2 0 2 C0 1.34 0 0.68 0 0 Z " fill="#121212" transform="translate(88,9)"/>
<path d="M0 0 C0.33 0 0.66 0 1 0 C1 9.9 1 19.8 1 30 C-1 28 -1 28 -1.13525391 25.20263672 C-1.08288574 24.04006348 -1.03051758 22.87749023 -0.9765625 21.6796875 C-0.925 20.42285156 -0.8734375 19.16601562 -0.8203125 17.87109375 C-0.75543074 16.53905165 -0.69032366 15.2070205 -0.625 13.875 C-0.56676177 12.53519706 -0.50945844 11.19535313 -0.453125 9.85546875 C-0.31129726 6.56979268 -0.15985087 3.28484064 0 0 Z " fill="#353839" transform="translate(36,3)"/>
<path d="M0 0 C0.99 0.495 0.99 0.495 2 1 C1.67 3.64 1.34 6.28 1 9 C1.66 7.68 2.32 6.36 3 5 C4.4783226 7.95664519 4.06032783 10.74229737 4 14 C2.68 14 1.36 14 0 14 C0 9.38 0 4.76 0 0 Z " fill="#070706" transform="translate(97,10)"/>
<path d="M0 0 C1.65 1.32 3.3 2.64 5 4 C3.41987986 7.49883745 2.39126684 8.30436658 -1 10 C-1.125 2.25 -1.125 2.25 0 0 Z " fill="#151514" transform="translate(99,9)"/>
<path d="M0 0 C0.99 0 1.98 0 3 0 C3 3.96 3 7.92 3 12 C0.70423322 9.70423322 -0.0638375 8.09653751 -1 5 C-0.625 2.1875 -0.625 2.1875 0 0 Z " fill="#141515" transform="translate(52,11)"/>
<path d="M0 0 C0.99 0.99 1.98 1.98 3 3 C1.9171875 3.61875 1.9171875 3.61875 0.8125 4.25 C-1.97969862 5.98736803 -4.47012585 7.90381857 -7 10 C-7 7 -7 7 -5.46875 5.17578125 C-4.8190625 4.56089844 -4.169375 3.94601563 -3.5 3.3125 C-2.8503125 2.68988281 -2.200625 2.06726563 -1.53125 1.42578125 C-0.77328125 0.72001953 -0.77328125 0.72001953 0 0 Z " fill="#1D5B61" transform="translate(19,5)"/>
<path d="M0 0 C4 2 4 2 4.875 3.9375 C5 6 5 6 3 9 C2.01 9.495 2.01 9.495 1 10 C0.67 6.7 0.34 3.4 0 0 Z M2 0 C4 1 4 1 4 1 Z " fill="#191919" transform="translate(40,9)"/>
<path d="M0 0 C0.33 0 0.66 0 1 0 C1 2.97 1 5.94 1 9 C-0.65 8.67 -2.3 8.34 -4 8 C-4.33 6.35 -4.66 4.7 -5 3 C-4.34 4.32 -3.68 5.64 -3 7 C-2.34 7 -1.68 7 -1 7 C-0.67 4.69 -0.34 2.38 0 0 Z " fill="#060706" transform="translate(109,15)"/>
<path d="M0 0 C0.33 0 0.66 0 1 0 C0.85915204 1.79206547 0.71216299 3.58364917 0.5625 5.375 C0.48128906 6.37273438 0.40007812 7.37046875 0.31640625 8.3984375 C0 11 0 11 -1 13 C-1.66 13 -2.32 13 -3 13 C-3.33 12.01 -3.66 11.02 -4 10 C-3.34 9.67 -2.68 9.34 -2 9 C-1.31270746 6.88153715 -1.31270746 6.88153715 -0.875 4.4375 C-0.70742187 3.61121094 -0.53984375 2.78492188 -0.3671875 1.93359375 C-0.24601562 1.29550781 -0.12484375 0.65742188 0 0 Z " fill="#171716" transform="translate(109,9)"/>
<path d="M0 0 C3.68754757 0.49831724 5.60490662 1.10067643 8 4 C7.67 4.99 7.34 5.98 7 7 C5.68 6.34 4.36 5.68 3 5 C3 4.34 3 3.68 3 3 C1.54166642 1.37485532 1.54166642 1.37485532 0 0 Z " fill="#328B9F" transform="translate(19,8)"/>
<path d="M0 0 C0.99 0 1.98 0 3 0 C3.33 0.99 3.66 1.98 4 3 C2.02 3.99 2.02 3.99 0 5 C-0.5625 3.0625 -0.5625 3.0625 -1 1 C-0.67 0.67 -0.34 0.34 0 0 Z " fill="#1D0506" transform="translate(66,28)"/>
<path d="M0 0 C0.66 0.33 1.32 0.66 2 1 C2 1.66 2 2.32 2 3 C0.03852126 4.38938077 -1.96166576 5.7260411 -4 7 C-4 4 -4 4 -2 1.8125 C-1.34 1.214375 -0.68 0.61625 0 0 Z " fill="#368EA4" transform="translate(26,23)"/>
<path d="M0 0 C0.33 1.32 0.66 2.64 1 4 C-1.31 4 -3.62 4 -6 4 C-3.94766315 1.7522025 -2.99332739 0.9977758 0 0 Z " fill="#121314" transform="translate(76,20)"/>
<path d="M0 0 C1.32 0 2.64 0 4 0 C4 1.32 4 2.64 4 4 C2.68 4 1.36 4 0 4 C0 2.68 0 1.36 0 0 Z " fill="#0D080B" transform="translate(60,28)"/>
<path d="M0 0 C1.32 0 2.64 0 4 0 C4 1.32 4 2.64 4 4 C2.68 4 1.36 4 0 4 C0 2.68 0 1.36 0 0 Z " fill="#120707" transform="translate(95,28)"/>
<path d="M0 0 C0.99 0 1.98 0 3 0 C3 1.32 3 2.64 3 4 C2.01 4 1.02 4 0 4 C0 2.68 0 1.36 0 0 Z M1 1 C2 3 2 3 2 3 Z " fill="#090C0C" transform="translate(41,28)"/>
<path d="M0 0 C0.99 0 1.98 0 3 0 C2.67 1.32 2.34 2.64 2 4 C1.34 4 0.68 4 0 4 C0 2.68 0 1.36 0 0 Z " fill="#090604" transform="translate(104,28)"/>
<path d="M0 0 C0.99 0.33 1.98 0.66 3 1 C3 1.99 3 2.98 3 4 C2.01 4 1.02 4 0 4 C0 2.68 0 1.36 0 0 Z " fill="#0B0707" transform="translate(100,28)"/>
<path d="M0 0 C0.99 0.33 1.98 0.66 3 1 C3 1.99 3 2.98 3 4 C2.01 4 1.02 4 0 4 C0 2.68 0 1.36 0 0 Z " fill="#070707" transform="translate(49,28)"/>
<path d="M0 0 C0.99 0 1.98 0 3 0 C2.34 1.32 1.68 2.64 1 4 C0.67 2.68 0.34 1.36 0 0 Z " fill="#0A0806" transform="translate(91,28)"/>
<path d="M0 0 C0.99 0 1.98 0 3 0 C2.67 1.32 2.34 2.64 2 4 C1.34 4 0.68 4 0 4 C0 2.68 0 1.36 0 0 Z M1 1 C2 3 2 3 2 3 Z " fill="#0E0606" transform="translate(71,28)"/>
<path d="M0 0 C0.66 0 1.32 0 2 0 C2 1.32 2 2.64 2 4 C1.01 3.67 0.02 3.34 -1 3 C-0.67 2.01 -0.34 1.02 0 0 Z " fill="#2A2A28" transform="translate(46,28)"/>
<path d="M0 0 C0.66 0 1.32 0 2 0 C2.33 1.32 2.66 2.64 3 4 C2.01 4 1.02 4 0 4 C0 2.68 0 1.36 0 0 Z " fill="#100D06" transform="translate(75,28)"/>
<path d="M0 0 C0.99 0.33 1.98 0.66 3 1 C2.01 2.485 2.01 2.485 1 4 C0.67 2.68 0.34 1.36 0 0 Z " fill="#040404" transform="translate(108,28)"/>
<path d="M0 0 C0.99 0 1.98 0 3 0 C2.67 0.99 2.34 1.98 2 3 C1.34 2.01 0.68 1.02 0 0 Z " fill="#040704" transform="translate(56,28)"/>
<path d="M0 0 C0.99 0.99 1.98 1.98 3 3 C2.01 2.67 1.02 2.34 0 2 C0 1.34 0 0.68 0 0 Z " fill="#030603" transform="translate(55,29)"/>
<path d="M0 0 C0.99 0.99 1.98 1.98 3 3 C2.01 2.67 1.02 2.34 0 2 C0 1.34 0 0.68 0 0 Z " fill="#070706" transform="translate(86,29)"/>
<path d="M0 0 C0.66 1.32 1.32 2.64 2 4 C1.34 3.67 0.68 3.34 0 3 C0 2.01 0 1.02 0 0 Z " fill="#060503" transform="translate(79,28)"/>
<path d="M0 0 C0.66 1.32 1.32 2.64 2 4 C1.34 4 0.68 4 0 4 C0 2.68 0 1.36 0 0 Z " fill="#030403" transform="translate(83,28)"/>
<path d="M0 0 C0.99 0 1.98 0 3 0 C2.67 0.99 2.34 1.98 2 3 C2 2.34 2 1.68 2 1 C1.34 0.67 0.68 0.34 0 0 Z " fill="#040402" transform="translate(87,28)"/>
<path d="M0 0 C1 4 1 4 1 4 Z " fill="#020502" transform="translate(53,28)"/>
<path d="" fill="#000400" transform="translate(0,0)"/>
</svg>
