<?xml version="1.0" encoding="UTF-8"?>
<svg version="1.1" xmlns="http://www.w3.org/2000/svg" width="200" height="63">
<path d="M0 0 C4.26763313 2.2859534 7.47663624 5.23583857 10.8125 8.6875 C11.31458984 9.19861328 11.81667969 9.70972656 12.33398438 10.23632812 C13.56063509 11.48634362 14.78097491 12.7425468 16 14 C11.64292379 19.27435541 6.96990282 24.08468379 2.07421875 28.86328125 C-0.03762292 30.8234843 -0.03762292 30.8234843 -1 33 C3.11543159 31.17091929 5.45106117 29.69596131 8 26 C8.66 26 9.32 26 10 26 C10 25.34 10 24.68 10 24 C10.66 24 11.32 24 12 24 C12 23.34 12 22.68 12 22 C14.25 19.8125 14.25 19.8125 17 18 C19.3125 18.25 19.3125 18.25 21 19 C19.54254576 22.36335594 17.68882146 24.54534005 15.0859375 27.109375 C14.32539062 27.86347656 13.56484375 28.61757813 12.78125 29.39453125 C11.9871875 30.17183594 11.193125 30.94914062 10.375 31.75 C9.57320312 32.54277344 8.77140625 33.33554687 7.9453125 34.15234375 C5.96797154 36.10614493 3.98611091 38.05512103 2 40 C-0.66666667 38.66666667 -3.33333333 37.33333333 -6 36 C-3.69 38.64 -1.38 41.28 1 44 C4.84281736 42.07859132 6.80431927 40.4073184 9.75 37.375 C10.54921875 36.55773438 11.3484375 35.74046875 12.171875 34.8984375 C12.77515625 34.27195313 13.3784375 33.64546875 14 33 C14.99 33.66 15.98 34.32 17 35 C14.22625482 41.80828362 7.43482117 46.32038971 2 51 C-1.73867071 47.87172451 -5.43269846 44.69826079 -9 41.375 C-9.598125 40.82585938 -10.19625 40.27671875 -10.8125 39.7109375 C-12 38 -12 38 -11.8125 35.9296875 C-10.56134272 32.95818896 -8.35375443 31.11234372 -6 29 C-5.23042969 28.30777344 -4.46085937 27.61554687 -3.66796875 26.90234375 C-1.4536728 24.92516926 0.76925845 22.95858136 3 21 C2.67 20.01 2.34 19.02 2 18 C-3.28 23.28 -8.56 28.56 -14 34 C-14.99 33.67 -15.98 33.34 -17 33 C-15.50079488 29.88626628 -13.91847864 26.87771795 -12 24 C-11.34 24 -10.68 24 -10 24 C-9.62875 23.071875 -9.62875 23.071875 -9.25 22.125 C-7.79371361 19.64931313 -6.62187494 19.04874998 -4 18 C-4 17.34 -4 16.68 -4 16 C-1.75 13.8125 -1.75 13.8125 1 12 C3.25 12.125 3.25 12.125 5 13 C5.33 13.66 5.66 14.32 6 15 C6.66 15 7.32 15 8 15 C8 14.34 8 13.68 8 13 C6.44144019 11.64287834 6.44144019 11.64287834 4.5 10.375 C3.345 9.59125 2.19 8.8075 1 8 C-2.63 11.3 -6.26 14.6 -10 18 C-10.99 17.67 -11.98 17.34 -13 17 C-12.42254618 13.20776596 -10.75643392 11.28340892 -8.1875 8.5 C-7.50042969 7.7471875 -6.81335937 6.994375 -6.10546875 6.21875 C-4.10400033 4.1095959 -2.06751413 2.04428363 0 0 Z " fill="#1499AB" transform="translate(25,5)"/>
<path d="M0 0 C2.64 0 5.28 0 8 0 C8.82011312 1.55851755 9.63076213 3.12201716 10.4375 4.6875 C10.88996094 5.55761719 11.34242187 6.42773438 11.80859375 7.32421875 C12.95991928 9.90998264 13.56320753 12.21356528 14 15 C14.66 15 15.32 15 16 15 C16.29003906 14.00419922 16.29003906 14.00419922 16.5859375 12.98828125 C19.17223199 4.21792619 19.17223199 4.21792619 21 0 C23.64 0 26.28 0 29 0 C29 8.25 29 16.5 29 25 C27.02 25 25.04 25 23 25 C22.505 20.05 22.505 20.05 22 15 C20.68 18.3 19.36 21.6 18 25 C16.02 25 14.04 25 12 25 C10.68 21.7 9.36 18.4 8 15 C7.67 18.3 7.34 21.6 7 25 C4.69 25 2.38 25 0 25 C0 16.75 0 8.5 0 0 Z " fill="#FDFDFD" transform="translate(62,14)"/>
<path d="M0 0 C2.31 0 4.62 0 7 0 C9.43359375 2.625 9.43359375 2.625 11.4375 6 C12.11683594 7.11375 12.79617187 8.2275 13.49609375 9.375 C13.99238281 10.24125 14.48867187 11.1075 15 12 C15.33 8.04 15.66 4.08 16 0 C18.31 0 20.62 0 23 0 C23 8.25 23 16.5 23 25 C20.69 25 18.38 25 16 25 C13.56640625 22.375 13.56640625 22.375 11.5625 19 C10.88316406 17.88625 10.20382813 16.7725 9.50390625 15.625 C9.00761719 14.75875 8.51132813 13.8925 8 13 C7.67 16.96 7.34 20.92 7 25 C4.69 25 2.38 25 0 25 C0 16.75 0 8.5 0 0 Z " fill="#FBFCFC" transform="translate(163,14)"/>
<path d="M0 0 C2.05078125 0.03255208 4.1015625 0.06510417 6.15234375 0.09765625 C7.49352228 3.69895246 8.82392765 7.30413484 10.15234375 10.91015625 C10.53390625 11.93431641 10.91546875 12.95847656 11.30859375 14.01367188 C11.66953125 14.99658203 12.03046875 15.97949219 12.40234375 16.9921875 C12.90507812 18.35114136 12.90507812 18.35114136 13.41796875 19.73754883 C14.15234375 22.09765625 14.15234375 22.09765625 14.15234375 25.09765625 C11.84234375 25.09765625 9.53234375 25.09765625 7.15234375 25.09765625 C6.82234375 24.10765625 6.49234375 23.11765625 6.15234375 22.09765625 C3.18234375 21.76765625 0.21234375 21.43765625 -2.84765625 21.09765625 C-3.17765625 22.41765625 -3.50765625 23.73765625 -3.84765625 25.09765625 C-6.15765625 25.09765625 -8.46765625 25.09765625 -10.84765625 25.09765625 C-3.79152071 0.2003975 -3.79152071 0.2003975 0 0 Z M1.15234375 8.09765625 C0.49234375 10.73765625 -0.16765625 13.37765625 -0.84765625 16.09765625 C0.80234375 16.09765625 2.45234375 16.09765625 4.15234375 16.09765625 C3.49234375 13.45765625 2.83234375 10.81765625 2.15234375 8.09765625 C1.82234375 8.09765625 1.49234375 8.09765625 1.15234375 8.09765625 Z " fill="#FCFCFC" transform="translate(143.84765625,13.90234375)"/>
<path d="M0 0 C6.27 0 12.54 0 19 0 C17.875 6.75 17.875 6.75 15.93359375 9.4296875 C15.53076172 9.996875 15.12792969 10.5640625 14.71289062 11.1484375 C14.29201172 11.71820313 13.87113281 12.28796875 13.4375 12.875 C12.80038086 13.76445312 12.80038086 13.76445312 12.15039062 14.671875 C11.10989834 16.12154965 10.0562628 17.56177551 9 19 C12.3 19.33 15.6 19.66 19 20 C19 21.65 19 23.3 19 25 C12.73 25 6.46 25 0 25 C0 19.375 0 19.375 2.1875 16.44921875 C2.63867188 15.83369141 3.08984375 15.21816406 3.5546875 14.58398438 C4.03164062 13.95814453 4.50859375 13.33230469 5 12.6875 C5.47695312 12.04232422 5.95390625 11.39714844 6.4453125 10.73242188 C7.61964716 9.14707008 8.80843396 7.57244161 10 6 C6.7 5.67 3.4 5.34 0 5 C0 3.35 0 1.7 0 0 Z " fill="#FDFDFD" transform="translate(110,14)"/>
<path d="M0 0 C0.66 0.33 1.32 0.66 2 1 C1.67 1.66 1.34 2.32 1 3 C0.34 3 -0.32 3 -1 3 C-1 3.66 -1 4.32 -1 5 C-0.01 5.33 0.98 5.66 2 6 C2 6.66 2 7.32 2 8 C1.01 8 0.02 8 -1 8 C1.31 10.64 3.62 13.28 6 16 C9.84281736 14.07859132 11.80431927 12.4073184 14.75 9.375 C15.54921875 8.55773438 16.3484375 7.74046875 17.171875 6.8984375 C17.77515625 6.27195312 18.3784375 5.64546875 19 5 C19.99 5.66 20.98 6.32 22 7 C19.22625482 13.80828362 12.43482117 18.32038971 7 23 C3.26132929 19.87172451 -0.43269846 16.69826079 -4 13.375 C-4.598125 12.82585938 -5.19625 12.27671875 -5.8125 11.7109375 C-7 10 -7 10 -6.84375 7.95703125 C-5.56113088 4.98206745 -3.35114822 3.1748121 -1 1 C-0.67 0.67 -0.34 0.34 0 0 Z " fill="#22A7BB" transform="translate(20,33)"/>
<path d="M0 0 C4.26763313 2.2859534 7.47663624 5.23583857 10.8125 8.6875 C11.31458984 9.19861328 11.81667969 9.70972656 12.33398438 10.23632812 C13.56063509 11.48634362 14.78097491 12.7425468 16 14 C13 14 13 14 10 12 C9.67 12.99 9.34 13.98 9 15 C7.8553125 13.824375 7.8553125 13.824375 6.6875 12.625 C4.09108195 9.92742283 4.09108195 9.92742283 1 8 C-2.63 11.3 -6.26 14.6 -10 18 C-10.99 17.67 -11.98 17.34 -13 17 C-12.42254618 13.20776596 -10.75643392 11.28340892 -8.1875 8.5 C-7.50042969 7.7471875 -6.81335938 6.994375 -6.10546875 6.21875 C-4.10400033 4.1095959 -2.06751413 2.04428363 0 0 Z " fill="#1E97A9" transform="translate(25,5)"/>
<path d="M0 0 C1.98 0 3.96 0 6 0 C6 8.25 6 16.5 6 25 C4.02 25 2.04 25 0 25 C0 16.75 0 8.5 0 0 Z " fill="#FEFEFE" transform="translate(98,14)"/>
<path d="M0 0 C0.556875 0.2475 1.11375 0.495 1.6875 0.75 C0.23004576 4.11335594 -1.62367854 6.29534005 -4.2265625 8.859375 C-4.98710938 9.61347656 -5.74765625 10.36757813 -6.53125 11.14453125 C-7.3253125 11.92183594 -8.119375 12.69914062 -8.9375 13.5 C-9.73929688 14.29277344 -10.54109375 15.08554687 -11.3671875 15.90234375 C-13.34452846 17.85614493 -15.32638909 19.80512103 -17.3125 21.75 C-21.1875 20 -21.1875 20 -22.3125 17.75 C-21.590625 17.193125 -20.86875 16.63625 -20.125 16.0625 C-17.25289653 13.78647244 -17.25289653 13.78647244 -14.6875 11.0625 C-12.3125 8.75 -12.3125 8.75 -9.3125 7.75 C-9.3125 7.09 -9.3125 6.43 -9.3125 5.75 C-8.6525 5.75 -7.9925 5.75 -7.3125 5.75 C-7.3125 5.09 -7.3125 4.43 -7.3125 3.75 C-3.10958131 -0.33617095 -3.10958131 -0.33617095 0 0 Z " fill="#2BA9BA" transform="translate(44.3125,23.25)"/>
<path d="M0 0 C0.556875 0.2475 1.11375 0.495 1.6875 0.75 C0.3675 1.08 -0.9525 1.41 -2.3125 1.75 C-2.3125 2.41 -2.3125 3.07 -2.3125 3.75 C-1.6525 4.08 -0.9925 4.41 -0.3125 4.75 C-5.9225 10.36 -11.5325 15.97 -17.3125 21.75 C-18.3025 21.42 -19.2925 21.09 -20.3125 20.75 C-18.81329488 17.63626628 -17.23097864 14.62771795 -15.3125 11.75 C-14.6525 11.75 -13.9925 11.75 -13.3125 11.75 C-13.065 11.13125 -12.8175 10.5125 -12.5625 9.875 C-11.10621361 7.39931313 -9.93437494 6.79874998 -7.3125 5.75 C-7.3125 5.09 -7.3125 4.43 -7.3125 3.75 C-3.10958131 -0.33617095 -3.10958131 -0.33617095 0 0 Z " fill="#2EA2B1" transform="translate(28.3125,17.25)"/>
<path d="M0 0 C0.66 0 1.32 0 2 0 C2 19.14 2 38.28 2 58 C1.34 58 0.68 58 0 58 C0 38.86 0 19.72 0 0 Z " fill="#B5CCC4" transform="translate(55,2)"/>
<path d="M0 0 C0.8353125 0.37125 0.8353125 0.37125 1.6875 0.75 C0.3675 1.08 -0.9525 1.41 -2.3125 1.75 C-2.3125 2.41 -2.3125 3.07 -2.3125 3.75 C-1.6525 4.08 -0.9925 4.41 -0.3125 4.75 C-2.6225 7.06 -4.9325 9.37 -7.3125 11.75 C-8.3025 10.76 -9.2925 9.77 -10.3125 8.75 C-9.9825 7.76 -9.6525 6.77 -9.3125 5.75 C-8.6525 5.75 -7.9925 5.75 -7.3125 5.75 C-7.3125 5.09 -7.3125 4.43 -7.3125 3.75 C-3.10958131 -0.33617095 -3.10958131 -0.33617095 0 0 Z " fill="#1695A4" transform="translate(28.3125,17.25)"/>
<path d="M0 0 C0.66 0.33 1.32 0.66 2 1 C1.2575 1.53625 0.515 2.0725 -0.25 2.625 C-3.17674961 5.15264739 -4.98621339 7.71827368 -7 11 C-6.34 11.33 -5.68 11.66 -5 12 C-6.32 13.32 -7.64 14.64 -9 16 C-9.99 15.67 -10.98 15.34 -12 15 C-11.42357255 11.17461786 -9.6992642 9.19443221 -7.125 6.375 C-6.42632812 5.59898438 -5.72765625 4.82296875 -5.0078125 4.0234375 C-3 2 -3 2 0 0 Z " fill="#1D8596" transform="translate(24,7)"/>
<path d="M0 0 C0.86625 0.37125 0.86625 0.37125 1.75 0.75 C0.1669423 5.0242558 -2.75568404 7.01531794 -6.25 9.75 C-6.58102914 6.1086795 -6.67019439 4.33527075 -4.5 1.3125 C-2.25 -0.25 -2.25 -0.25 0 0 Z " fill="#1B96A8" transform="translate(44.25,23.25)"/>
<path d="M0 0 C2.4375 0.375 2.4375 0.375 5 1 C5.33 1.66 5.66 2.32 6 3 C5.01 4.32 4.02 5.64 3 7 C1.35 6.67 -0.3 6.34 -2 6 C-1.49396008 3.83125748 -1.00016187 2.00032373 0 0 Z " fill="#F2FBF9" transform="translate(109,48)"/>
<path d="M0 0 C0.33 0 0.66 0 1 0 C1.1875 3.375 1.1875 3.375 1 7 C-2 9 -2 9 -4.1875 8.625 C-4.785625 8.41875 -5.38375 8.2125 -6 8 C-5.34 6.68 -4.68 5.36 -4 4 C-3.34 4 -2.68 4 -2 4 C-2 3.34 -2 2.68 -2 2 C-1.34 2 -0.68 2 0 2 C0 1.34 0 0.68 0 0 Z " fill="#37B0C2" transform="translate(37,27)"/>
<path d="M0 0 C0.33 0.66 0.66 1.32 1 2 C1.99 2.33 2.98 2.66 4 3 C-1.625 8 -1.625 8 -5 8 C-3.62845496 5.04590299 -2.01136276 2.55991624 0 0 Z " fill="#128EA3" transform="translate(22,10)"/>
<path d="M0 0 C0.99 0.99 1.98 1.98 3 3 C3.99 2.01 4.98 1.02 6 0 C7 1 7 1 7.0625 3.5625 C7.041875 4.366875 7.02125 5.17125 7 6 C4.50935112 6.68707555 2.62113708 7 0 7 C0 4.69 0 2.38 0 0 Z " fill="#EFF7F6" transform="translate(160,47)"/>
<path d="M0 0 C2.475 0.495 2.475 0.495 5 1 C5.625 2.875 5.625 2.875 6 5 C5.34 5.66 4.68 6.32 4 7 C2.68 7 1.36 7 0 7 C0 4.69 0 2.38 0 0 Z M2 2 C2 2.99 2 3.98 2 5 C2.66 5 3.32 5 4 5 C4 4.01 4 3.02 4 2 C3.34 2 2.68 2 2 2 Z " fill="#E6EFEC" transform="translate(117,47)"/>
<path d="M0 0 C0.66 0.66 1.32 1.32 2 2 C2.33 1.34 2.66 0.68 3 0 C3.66 0 4.32 0 5 0 C5 2.31 5 4.62 5 7 C4.34 7 3.68 7 3 7 C2.67 6.34 2.34 5.68 2 5 C1.34 5.66 0.68 6.32 0 7 C-1 6 -1 6 -1.125 3.5 C-1 1 -1 1 0 0 Z " fill="#EEF6F8" transform="translate(176,47)"/>
<path d="M0 0 C2.125 0.375 2.125 0.375 4 1 C4.625 2.875 4.625 2.875 5 5 C4.34 5.66 3.68 6.32 3 7 C0.875 6.625 0.875 6.625 -1 6 C-1.625 4.125 -1.625 4.125 -2 2 C-1.34 1.34 -0.68 0.68 0 0 Z M0 2 C0 2.99 0 3.98 0 5 C0.99 5 1.98 5 3 5 C3 4.01 3 3.02 3 2 C2.01 2 1.02 2 0 2 Z " fill="#E2EBEA" transform="translate(146,47)"/>
<path d="M0 0 C0.99 0.66 1.98 1.32 3 2 C1.50902342 5.7952131 -0.75700849 7.61042731 -4 10 C-4.33 9.01 -4.66 8.02 -5 7 C-4.0409375 6.1028125 -4.0409375 6.1028125 -3.0625 5.1875 C-0.79689611 3.09189663 -0.79689611 3.09189663 0 0 Z " fill="#3EBACF" transform="translate(39,38)"/>
<path d="M0 0 C2.0625 0.4375 2.0625 0.4375 4 1 C4 2.65 4 4.3 4 6 C2.125 6.625 2.125 6.625 0 7 C-0.66 6.34 -1.32 5.68 -2 5 C-1.46428571 1.46428571 -1.46428571 1.46428571 0 0 Z M0 2 C0 2.99 0 3.98 0 5 C0.99 4.67 1.98 4.34 3 4 C3 3.34 3 2.68 3 2 C2.01 2 1.02 2 0 2 Z " fill="#F1F7F6" transform="translate(92,47)"/>
<path d="M0 0 C0 0.66 0 1.32 0 2 C0.66 2.66 1.32 3.32 2 4 C-0.3125 4.6875 -0.3125 4.6875 -3 5 C-4.8125 3.6875 -4.8125 3.6875 -6 2 C-6 1.34 -6 0.68 -6 0 C-3.50907189 -1.24546405 -2.58919267 -0.7767578 0 0 Z " fill="#099DB2" transform="translate(25,36)"/>
<path d="M0 0 C1.32 0 2.64 0 4 0 C4 2.31 4 4.62 4 7 C2.68 7 1.36 7 0 7 C0 4.69 0 2.38 0 0 Z " fill="#E4EEEF" transform="translate(169,47)"/>
<path d="M0 0 C2.475 0.495 2.475 0.495 5 1 C5.33 1.99 5.66 2.98 6 4 C4.6875 5.5 4.6875 5.5 3 7 C2.01 7 1.02 7 0 7 C0 4.69 0 2.38 0 0 Z M1 2 C1 2.99 1 3.98 1 5 C1.99 5 2.98 5 4 5 C4 4.01 4 3.02 4 2 C3.01 2 2.02 2 1 2 Z " fill="#EBF1EF" transform="translate(65,47)"/>
<path d="M0 0 C1.04449911 3.13349732 0.93423645 3.98968256 0 7 C-1.65 7 -3.3 7 -5 7 C-3.47793991 4.37098712 -2.15634036 2.15634036 0 0 Z " fill="#1C9FAE" transform="translate(26,28)"/>
<path d="M0 0 C0.66 0.33 1.32 0.66 2 1 C1.2575 1.556875 0.515 2.11375 -0.25 2.6875 C-3.07544208 4.90826999 -3.07544208 4.90826999 -5.1875 7.75 C-6.0846875 8.86375 -6.0846875 8.86375 -7 10 C-7.66 10 -8.32 10 -9 10 C-7.61811547 6.78956118 -6.07578097 4.95063635 -3.375 2.75 C-2.74335938 2.22921875 -2.11171875 1.7084375 -1.4609375 1.171875 C-0.73777344 0.59179688 -0.73777344 0.59179688 0 0 Z " fill="#0B565E" transform="translate(24,7)"/>
<path d="M0 0 C0.66 1.32 1.32 2.64 2 4 C1.01 4.99 0.02 5.98 -1 7 C-1.99 6.67 -2.98 6.34 -4 6 C-2.84826645 3.53199953 -1.95216435 1.95216435 0 0 Z " fill="#2192A7" transform="translate(12,32)"/>
<path d="M0 0 C0.8353125 0.37125 0.8353125 0.37125 1.6875 0.75 C0.3675 1.08 -0.9525 1.41 -2.3125 1.75 C-2.3125 2.41 -2.3125 3.07 -2.3125 3.75 C-1.6525 4.08 -0.9925 4.41 -0.3125 4.75 C-1.3025 5.41 -2.2925 6.07 -3.3125 6.75 C-3.3125 6.09 -3.3125 5.43 -3.3125 4.75 C-4.6325 4.42 -5.9525 4.09 -7.3125 3.75 C-2.88173077 -0.31153846 -2.88173077 -0.31153846 0 0 Z " fill="#3197A6" transform="translate(28.3125,17.25)"/>
<path d="M0 0 C2.475 0.495 2.475 0.495 5 1 C4.67 1.99 4.34 2.98 4 4 C3.34 4 2.68 4 2 4 C1.67 4.99 1.34 5.98 1 7 C0.67 7 0.34 7 0 7 C0 4.69 0 2.38 0 0 Z " fill="#E5EBEB" transform="translate(153,47)"/>
<path d="M0 0 C1.32 0 2.64 0 4 0 C3.814375 0.598125 3.62875 1.19625 3.4375 1.8125 C2.77906313 4.16408762 2.77906313 4.16408762 4 7 C2.68 7 1.36 7 0 7 C0 4.69 0 2.38 0 0 Z " fill="#E8EFEE" transform="translate(125,47)"/>
<path d="M0 0 C0.99 0 1.98 0 3 0 C3.33 1.65 3.66 3.3 4 5 C2.02 5.99 2.02 5.99 0 7 C-0.93423645 3.98968256 -1.04449911 3.13349732 0 0 Z " fill="#F0F7F5" transform="translate(80,47)"/>
<path d="M0 0 C1.32 0 2.64 0 4 0 C3.814375 0.78375 3.62875 1.5675 3.4375 2.375 C2.74037734 4.97089775 2.74037734 4.97089775 4 7 C2.68 7 1.36 7 0 7 C0 4.69 0 2.38 0 0 Z " fill="#EFF6F4" transform="translate(73,47)"/>
<path d="M0 0 C1.32 0.66 2.64 1.32 4 2 C4 2.99 4 3.98 4 5 C3.01 5.495 3.01 5.495 2 6 C1.01 5.01 0.02 4.02 -1 3 C-0.67 2.01 -0.34 1.02 0 0 Z " fill="#0996AA" transform="translate(35,17)"/>
<path d="M0 0 C0.99 0.99 1.98 1.98 3 3 C3.33 2.01 3.66 1.02 4 0 C4.66 0.33 5.32 0.66 6 1 C5.01 2.98 4.02 4.96 3 7 C0 3.375 0 3.375 0 0 Z " fill="#F1F7F6" transform="translate(131,47)"/>
<path d="M0 0 C0.66 0.33 1.32 0.66 2 1 C1.34 2.65 0.68 4.3 0 6 C-1.32 6 -2.64 6 -4 6 C-4 5.34 -4 4.68 -4 4 C-3.01 4 -2.02 4 -1 4 C-0.67 2.68 -0.34 1.36 0 0 Z " fill="#0DA3BE" transform="translate(29,37)"/>
<path d="M0 0 C1.65 0 3.3 0 5 0 C4.34 2.31 3.68 4.62 3 7 C2.67 7 2.34 7 2 7 C2 5.35 2 3.7 2 2 C1.34 2 0.68 2 0 2 C0 1.34 0 0.68 0 0 Z " fill="#F6FAF9" transform="translate(183,47)"/>
<path d="M0 0 C0.33 0 0.66 0 1 0 C1 2.31 1 4.62 1 7 C0.01 6.34 -0.98 5.68 -2 5 C-1.34 3.35 -0.68 1.7 0 0 Z " fill="#F2FAF8" transform="translate(103,47)"/>
<path d="M0 0 C0.99 0.495 0.99 0.495 2 1 C2 2.65 2 4.3 2 6 C1.01 6.495 1.01 6.495 0 7 C0 4.69 0 2.38 0 0 Z " fill="#E0E8E4" transform="translate(86,47)"/>
<path d="M0 0 C0.33 0 0.66 0 1 0 C1 1.65 1 3.3 1 5 C1.66 5 2.32 5 3 5 C3 5.66 3 6.32 3 7 C2.01 7 1.02 7 0 7 C0 4.69 0 2.38 0 0 Z " fill="#EBF0F0" transform="translate(139,47)"/>
<path d="M0 0 C0.99 0.495 0.99 0.495 2 1 C1.67 2.98 1.34 4.96 1 7 C0.67 7 0.34 7 0 7 C0 4.69 0 2.38 0 0 Z " fill="#F7FCFC" transform="translate(99,47)"/>
<path d="" fill="#F7FFFB" transform="translate(0,0)"/>
</svg>
